<svg width="200" height="60" viewBox="0 0 200 60" fill="none" xmlns="http://www.w3.org/2000/svg">
<rect width="200" height="42.623" fill="#2160AF"/>
<rect x="11.7418" y="7.02903" width="13.8019" height="13.8019" stroke="white" stroke-width="2.7459"/>
<mask id="path-2-outside-1_736_19965" maskUnits="userSpaceOnUse" x="26.63" y="5.40198" width="14" height="17" fill="black">
<rect fill="white" x="26.63" y="5.40198" width="14" height="17"/>
<path d="M26.63 8.40198H37.686V19.458H26.63V8.40198Z"/>
</mask>
<path d="M37.686 8.40198H40.4319V5.65608H37.686V8.40198ZM37.686 19.458V22.2039H40.4319V19.458H37.686ZM26.63 11.1479H37.686V5.65608H26.63V11.1479ZM34.9401 8.40198V19.458H40.4319V8.40198H34.9401ZM37.686 16.7121H26.63V22.2039H37.686V16.7121Z" fill="white" mask="url(#path-2-outside-1_736_19965)"/>
<mask id="path-4-outside-2_736_19965" maskUnits="userSpaceOnUse" x="10.1147" y="20.83" width="17" height="14" fill="black">
<rect fill="white" x="10.1147" y="20.83" width="17" height="14"/>
<path d="M13.1147 20.83H24.1708V31.886H13.1147V20.83Z"/>
</mask>
<path d="M24.1708 31.886V34.6319H26.9167V31.886H24.1708ZM13.1147 31.886H10.3688V34.6319H13.1147V31.886ZM21.4249 20.83V31.886H26.9167V20.83H21.4249ZM24.1708 29.1401H13.1147V34.6319H24.1708V29.1401ZM15.8606 31.886V20.83H10.3688V31.886H15.8606Z" fill="white" mask="url(#path-4-outside-2_736_19965)"/>
<mask id="path-6-outside-3_736_19965" maskUnits="userSpaceOnUse" x="26.2293" y="21.9258" width="15" height="13" fill="black">
<rect fill="white" x="26.2293" y="21.9258" width="15" height="13"/>
<path d="M26.2293 21.9258H37.7048V34.2209H26.2293V21.9258Z"/>
</mask>
<path d="M34.9589 21.9258V34.2209H40.4507V21.9258H34.9589Z" fill="white" mask="url(#path-6-outside-3_736_19965)"/>
<path d="M48.0182 32.3115V10.851H56.2335C57.7844 10.851 59.0733 11.0955 60.1002 11.5845C61.1341 12.0665 61.9061 12.7267 62.416 13.565C62.933 14.4033 63.1914 15.3533 63.1914 16.4152C63.1914 17.2884 63.0238 18.0359 62.6885 18.6576C62.3531 19.2724 61.9026 19.7719 61.3367 20.1561C60.7709 20.5403 60.1386 20.8163 59.4401 20.9839V21.1935C60.2015 21.2354 60.9315 21.4694 61.6301 21.8956C62.3357 22.3147 62.912 22.9085 63.3591 23.677C63.8062 24.4454 64.0297 25.3745 64.0297 26.4643C64.0297 27.5751 63.7608 28.574 63.2229 29.4612C62.685 30.3415 61.8746 31.0365 60.7918 31.5465C59.709 32.0565 58.3468 32.3115 56.7051 32.3115H48.0182ZM51.9058 29.063H56.0868C57.498 29.063 58.5144 28.7941 59.1362 28.2562C59.7649 27.7113 60.0793 27.0127 60.0793 26.1604C60.0793 25.5247 59.9221 24.9519 59.6077 24.4419C59.2933 23.925 58.8463 23.5198 58.2664 23.2264C57.6866 22.926 56.995 22.7758 56.1916 22.7758H51.9058V29.063ZM51.9058 19.978H55.7515C56.4222 19.978 57.0264 19.8557 57.5644 19.6112C58.1023 19.3597 58.5249 19.0069 58.8323 18.5528C59.1466 18.0918 59.3038 17.5469 59.3038 16.9182C59.3038 16.0868 59.0104 15.4022 58.4236 14.8643C57.8438 14.3264 56.981 14.0575 55.8354 14.0575H51.9058V19.978ZM71.8757 32.6363C70.8558 32.6363 69.9371 32.4547 69.1198 32.0914C68.3094 31.7212 67.6668 31.1763 67.1917 30.4567C66.7237 29.7372 66.4896 28.85 66.4896 27.7951C66.4896 26.887 66.6573 26.136 66.9926 25.5422C67.3279 24.9484 67.7855 24.4733 68.3653 24.1171C68.9452 23.7608 69.5983 23.4918 70.3249 23.3102C71.0584 23.1216 71.8163 22.9854 72.5988 22.9015C73.5418 22.8037 74.3068 22.7164 74.8936 22.6396C75.4804 22.5557 75.9066 22.43 76.172 22.2623C76.4445 22.0877 76.5807 21.8187 76.5807 21.4555V21.3926C76.5807 20.6032 76.3467 19.9919 75.8786 19.5588C75.4106 19.1257 74.7364 18.9091 73.8562 18.9091C72.9271 18.9091 72.1901 19.1117 71.6452 19.5169C71.1073 19.9221 70.744 20.4006 70.5554 20.9525L67.0136 20.4495C67.293 19.4715 67.7541 18.6541 68.3968 17.9975C69.0395 17.3338 69.8254 16.8378 70.7545 16.5095C71.6836 16.1742 72.7105 16.0065 73.8352 16.0065C74.6107 16.0065 75.3826 16.0973 76.1511 16.279C76.9195 16.4606 77.6216 16.761 78.2573 17.1801C78.893 17.5923 79.403 18.1547 79.7872 18.8672C80.1784 19.5798 80.374 20.4705 80.374 21.5393V32.3115H76.7274V30.1004H76.6016C76.3711 30.5475 76.0463 30.9667 75.6271 31.3579C75.215 31.7421 74.6945 32.053 74.0658 32.2905C73.444 32.521 72.714 32.6363 71.8757 32.6363ZM72.8607 29.849C73.6222 29.849 74.2823 29.6988 74.8412 29.3984C75.4001 29.091 75.8297 28.6858 76.1301 28.1828C76.4375 27.6798 76.5912 27.1315 76.5912 26.5377V24.641C76.4724 24.7388 76.2698 24.8296 75.9834 24.9135C75.704 24.9973 75.3896 25.0706 75.0403 25.1335C74.691 25.1964 74.3452 25.2523 74.0029 25.3012C73.6606 25.3501 73.3637 25.392 73.1122 25.4269C72.5464 25.5038 72.0399 25.6295 71.5928 25.8042C71.1457 25.9788 70.7929 26.2233 70.5344 26.5377C70.276 26.845 70.1467 27.2432 70.1467 27.7322C70.1467 28.4308 70.4017 28.9583 70.9117 29.3145C71.4216 29.6708 72.0713 29.849 72.8607 29.849ZM87.9816 22.8806V32.3115H84.1883V16.2161H87.8139V18.951H88.0025C88.3728 18.0499 88.9631 17.3338 89.7734 16.8029C90.5908 16.272 91.6002 16.0065 92.8018 16.0065C93.9126 16.0065 94.8801 16.244 95.7044 16.7191C96.5357 17.1941 97.1784 17.8822 97.6325 18.7834C98.0936 19.6846 98.3206 20.7778 98.3136 22.0632V32.3115H94.5203V22.65C94.5203 21.5742 94.2409 20.7324 93.682 20.1247C93.1301 19.5169 92.3652 19.213 91.3872 19.213C90.7235 19.213 90.1332 19.3597 89.6163 19.6531C89.1063 19.9395 88.7046 20.3552 88.4112 20.9001C88.1248 21.445 87.9816 22.1051 87.9816 22.8806ZM105.628 27.2607L105.617 22.6815H106.225L112.009 16.2161H116.442L109.327 24.138H108.541L105.628 27.2607ZM102.17 32.3115V10.851H105.963V32.3115H102.17ZM112.271 32.3115L107.032 24.9868L109.589 22.3147L116.809 32.3115H112.271ZM129.213 32.3115H125.063L132.618 10.851H137.418L144.983 32.3115H140.834L135.102 15.252H134.934L129.213 32.3115ZM129.349 23.897H140.666V27.0197H129.349V23.897ZM160.104 20.4705L156.646 20.8477C156.548 20.4984 156.377 20.1701 156.133 19.8627C155.895 19.5553 155.574 19.3073 155.169 19.1187C154.764 18.9301 154.268 18.8358 153.681 18.8358C152.891 18.8358 152.228 19.0069 151.69 19.3492C151.159 19.6915 150.897 20.1351 150.904 20.68C150.897 21.1481 151.068 21.5288 151.417 21.8222C151.774 22.1156 152.36 22.3566 153.178 22.5453L155.923 23.1321C157.446 23.4604 158.578 23.9808 159.318 24.6934C160.066 25.406 160.443 26.3386 160.45 27.4912C160.443 28.5042 160.146 29.3984 159.559 30.1738C158.98 30.9422 158.173 31.543 157.139 31.9761C156.105 32.4093 154.917 32.6258 153.576 32.6258C151.606 32.6258 150.02 32.2137 148.819 31.3893C147.617 30.558 146.901 29.4019 146.671 27.9209L150.37 27.5646C150.537 28.2911 150.893 28.8395 151.438 29.2097C151.983 29.58 152.692 29.7651 153.566 29.7651C154.467 29.7651 155.19 29.58 155.735 29.2097C156.287 28.8395 156.562 28.3819 156.562 27.837C156.562 27.376 156.384 26.9952 156.028 26.6948C155.679 26.3945 155.134 26.1639 154.393 26.0032L151.648 25.4269C150.104 25.1056 148.962 24.5642 148.221 23.8027C147.481 23.0343 147.114 22.0632 147.121 20.8896C147.114 19.8976 147.383 19.0384 147.928 18.3118C148.48 17.5783 149.245 17.0125 150.223 16.6143C151.208 16.2091 152.343 16.0065 153.628 16.0065C155.515 16.0065 156.999 16.4082 158.082 17.2116C159.172 18.0149 159.846 19.1012 160.104 20.4705ZM163.578 32.3115V16.2161H167.371V32.3115H163.578ZM165.485 13.9317C164.884 13.9317 164.367 13.7326 163.934 13.3344C163.501 12.9292 163.285 12.4437 163.285 11.8779C163.285 11.305 163.501 10.8195 163.934 10.4213C164.367 10.0161 164.884 9.81356 165.485 9.81356C166.093 9.81356 166.61 10.0161 167.036 10.4213C167.469 10.8195 167.686 11.305 167.686 11.8779C167.686 12.4437 167.469 12.9292 167.036 13.3344C166.61 13.7326 166.093 13.9317 165.485 13.9317ZM175.904 32.6363C174.884 32.6363 173.965 32.4547 173.148 32.0914C172.337 31.7212 171.695 31.1763 171.22 30.4567C170.752 29.7372 170.518 28.85 170.518 27.7951C170.518 26.887 170.685 26.136 171.021 25.5422C171.356 24.9484 171.813 24.4733 172.393 24.1171C172.973 23.7608 173.626 23.4918 174.353 23.3102C175.086 23.1216 175.844 22.9854 176.627 22.9015C177.57 22.8037 178.335 22.7164 178.922 22.6396C179.508 22.5557 179.934 22.43 180.2 22.2623C180.472 22.0877 180.609 21.8187 180.609 21.4555V21.3926C180.609 20.6032 180.375 19.9919 179.907 19.5588C179.438 19.1257 178.764 18.9091 177.884 18.9091C176.955 18.9091 176.218 19.1117 175.673 19.5169C175.135 19.9221 174.772 20.4006 174.583 20.9525L171.041 20.4495C171.321 19.4715 171.782 18.6541 172.425 17.9975C173.067 17.3338 173.853 16.8378 174.782 16.5095C175.712 16.1742 176.738 16.0065 177.863 16.0065C178.639 16.0065 179.411 16.0973 180.179 16.279C180.947 16.4606 181.649 16.761 182.285 17.1801C182.921 17.5923 183.431 18.1547 183.815 18.8672C184.206 19.5798 184.402 20.4705 184.402 21.5393V32.3115H180.755V30.1004H180.63C180.399 30.5475 180.074 30.9667 179.655 31.3579C179.243 31.7421 178.722 32.053 178.094 32.2905C177.472 32.521 176.742 32.6363 175.904 32.6363ZM176.889 29.849C177.65 29.849 178.31 29.6988 178.869 29.3984C179.428 29.091 179.858 28.6858 180.158 28.1828C180.465 27.6798 180.619 27.1315 180.619 26.5377V24.641C180.5 24.7388 180.298 24.8296 180.011 24.9135C179.732 24.9973 179.418 25.0706 179.068 25.1335C178.719 25.1964 178.373 25.2523 178.031 25.3012C177.689 25.3501 177.392 25.392 177.14 25.4269C176.574 25.5038 176.068 25.6295 175.621 25.8042C175.174 25.9788 174.821 26.2233 174.562 26.5377C174.304 26.845 174.175 27.2432 174.175 27.7322C174.175 28.4308 174.43 28.9583 174.94 29.3145C175.45 29.6708 176.099 29.849 176.889 29.849Z" fill="white"/>
<rect y="42.623" width="200" height="16.3934" fill="white"/>
<path d="M47.2716 53.4414V45.5129H52.0256V46.3646H48.2317V49.0436H51.6694V49.8953H48.2317V53.4414H47.2716ZM55.5253 53.5653C54.9884 53.5653 54.5174 53.4375 54.1122 53.182C53.7096 52.9265 53.3947 52.5691 53.1676 52.1097C52.9431 51.6503 52.8308 51.1135 52.8308 50.4992C52.8308 49.8798 52.9431 49.3391 53.1676 48.8771C53.3947 48.4151 53.7096 48.0564 54.1122 47.8009C54.5174 47.5454 54.9884 47.4176 55.5253 47.4176C56.0621 47.4176 56.5318 47.5454 56.9344 47.8009C57.3396 48.0564 57.6545 48.4151 57.879 48.8771C58.1061 49.3391 58.2197 49.8798 58.2197 50.4992C58.2197 51.1135 58.1061 51.6503 57.879 52.1097C57.6545 52.5691 57.3396 52.9265 56.9344 53.182C56.5318 53.4375 56.0621 53.5653 55.5253 53.5653ZM55.5253 52.7446C55.933 52.7446 56.2686 52.64 56.5318 52.431C56.7951 52.2219 56.9899 51.9471 57.1164 51.6064C57.2428 51.2657 57.3061 50.8967 57.3061 50.4992C57.3061 50.1017 57.2428 49.7314 57.1164 49.3881C56.9899 49.0449 56.7951 48.7674 56.5318 48.5558C56.2686 48.3442 55.933 48.2384 55.5253 48.2384C55.1175 48.2384 54.782 48.3442 54.5187 48.5558C54.2555 48.7674 54.0606 49.0449 53.9342 49.3881C53.8077 49.7314 53.7445 50.1017 53.7445 50.4992C53.7445 50.8967 53.8077 51.2657 53.9342 51.6064C54.0606 51.9471 54.2555 52.2219 54.5187 52.431C54.782 52.64 55.1175 52.7446 55.5253 52.7446ZM59.6143 53.4414V47.4951H60.497V48.3932H60.559C60.6673 48.099 60.8635 47.8603 61.1474 47.677C61.4313 47.4938 61.7513 47.4021 62.1075 47.4021C62.1746 47.4021 62.2585 47.4034 62.3591 47.406C62.4598 47.4086 62.5359 47.4125 62.5875 47.4176V48.3467C62.5566 48.339 62.4856 48.3274 62.3746 48.3119C62.2662 48.2938 62.1514 48.2848 62.0301 48.2848C61.741 48.2848 61.4829 48.3455 61.2558 48.4668C61.0313 48.5855 60.8532 48.7507 60.7215 48.9623C60.5925 49.1713 60.528 49.4101 60.528 49.6785V53.4414H59.6143ZM67.1857 53.4414H66.1791L69.0904 45.5129H70.0814L72.9927 53.4414H71.9861L69.6169 46.7672H69.5549L67.1857 53.4414ZM67.5573 50.3443H71.6145V51.196H67.5573V50.3443ZM77.2937 53.4414V45.5129H80.0656C80.6179 45.5129 81.0734 45.6084 81.4321 45.7994C81.7909 45.9878 82.058 46.242 82.2335 46.5621C82.409 46.8795 82.4968 47.2318 82.4968 47.6189C82.4968 47.9596 82.4361 48.2409 82.3148 48.4629C82.1961 48.6848 82.0387 48.8603 81.8425 48.9894C81.6489 49.1184 81.4386 49.2139 81.2115 49.2759V49.3533C81.4541 49.3688 81.698 49.4539 81.9432 49.6088C82.1883 49.7637 82.3935 49.9856 82.5587 50.2747C82.7239 50.5637 82.8065 50.9173 82.8065 51.3354C82.8065 51.7329 82.7161 52.0903 82.5355 52.4078C82.3548 52.7252 82.0696 52.9768 81.6799 53.1627C81.2902 53.3485 80.7831 53.4414 80.1585 53.4414H77.2937ZM78.2538 52.5897H80.1585C80.7856 52.5897 81.2308 52.4684 81.4941 52.2258C81.7599 51.9806 81.8928 51.6838 81.8928 51.3354C81.8928 51.067 81.8244 50.8192 81.6877 50.5921C81.5509 50.3624 81.356 50.1792 81.1031 50.0424C80.8502 49.903 80.5508 49.8333 80.2049 49.8333H78.2538V52.5897ZM78.2538 48.9971H80.0346C80.3237 48.9971 80.5843 48.9404 80.8166 48.8268C81.0515 48.7132 81.2373 48.5532 81.3741 48.3467C81.5134 48.1403 81.5831 47.8977 81.5831 47.6189C81.5831 47.2705 81.4618 46.975 81.2192 46.7324C80.9766 46.4872 80.5921 46.3646 80.0656 46.3646H78.2538V48.9971ZM84.384 53.4414V45.5129H89.169V46.3646H85.3441V49.0436H88.9212V49.8953H85.3441V52.5897H89.2309V53.4414H84.384ZM90.4659 46.3646V45.5129H96.4122V46.3646H93.9191V53.4414H92.959V46.3646H90.4659ZM97.4604 46.3646V45.5129H103.407V46.3646H100.914V53.4414H99.9535V46.3646H97.4604ZM104.888 53.4414V45.5129H109.673V46.3646H105.849V49.0436H109.426V49.8953H105.849V52.5897H109.735V53.4414H104.888ZM111.404 53.4414V45.5129H114.083C114.702 45.5129 115.211 45.6188 115.608 45.8304C116.006 46.0394 116.3 46.3272 116.491 46.6937C116.682 47.0602 116.777 47.477 116.777 47.9441C116.777 48.4113 116.682 48.8255 116.491 49.1868C116.3 49.5481 116.007 49.832 115.612 50.0385C115.217 50.2424 114.713 50.3443 114.098 50.3443H111.93V49.4772H114.067C114.491 49.4772 114.831 49.4152 115.089 49.2914C115.35 49.1675 115.538 48.992 115.655 48.7649C115.773 48.5352 115.833 48.2616 115.833 47.9441C115.833 47.6267 115.773 47.3492 115.655 47.1118C115.536 46.8744 115.346 46.6911 115.086 46.5621C114.825 46.4304 114.48 46.3646 114.052 46.3646H112.364V53.4414H111.404ZM115.136 49.8798L117.087 53.4414H115.972L114.052 49.8798H115.136ZM121.01 46.3646V45.5129H126.956V46.3646H124.463V53.4414H123.503V46.3646H121.01ZM134.797 49.4772C134.797 50.3134 134.646 51.036 134.344 51.6451C134.042 52.2542 133.628 52.7239 133.102 53.0543C132.575 53.3846 131.974 53.5498 131.298 53.5498C130.621 53.5498 130.02 53.3846 129.494 53.0543C128.967 52.7239 128.553 52.2542 128.251 51.6451C127.949 51.036 127.798 50.3134 127.798 49.4772C127.798 48.641 127.949 47.9183 128.251 47.3092C128.553 46.7001 128.967 46.2304 129.494 45.9001C130.02 45.5697 130.621 45.4045 131.298 45.4045C131.974 45.4045 132.575 45.5697 133.102 45.9001C133.628 46.2304 134.042 46.7001 134.344 47.3092C134.646 47.9183 134.797 48.641 134.797 49.4772ZM133.868 49.4772C133.868 48.7907 133.753 48.2113 133.524 47.739C133.297 47.2666 132.988 46.9092 132.598 46.6666C132.211 46.424 131.778 46.3027 131.298 46.3027C130.818 46.3027 130.383 46.424 129.993 46.6666C129.606 46.9092 129.297 47.2666 129.068 47.739C128.841 48.2113 128.727 48.7907 128.727 49.4772C128.727 50.1637 128.841 50.7431 129.068 51.2154C129.297 51.6877 129.606 52.0451 129.993 52.2878C130.383 52.5304 130.818 52.6517 131.298 52.6517C131.778 52.6517 132.211 52.5304 132.598 52.2878C132.988 52.0451 133.297 51.6877 133.524 51.2154C133.753 50.7431 133.868 50.1637 133.868 49.4772ZM136.412 45.5129H137.558L140.252 52.0942H140.345L143.039 45.5129H144.185V53.4414H143.287V47.4176H143.21L140.732 53.4414H139.865L137.387 47.4176H137.31V53.4414H136.412V45.5129ZM152.8 49.4772C152.8 50.3134 152.649 51.036 152.347 51.6451C152.045 52.2542 151.631 52.7239 151.104 53.0543C150.578 53.3846 149.976 53.5498 149.3 53.5498C148.624 53.5498 148.023 53.3846 147.496 53.0543C146.97 52.7239 146.556 52.2542 146.254 51.6451C145.952 51.036 145.801 50.3134 145.801 49.4772C145.801 48.641 145.952 47.9183 146.254 47.3092C146.556 46.7001 146.97 46.2304 147.496 45.9001C148.023 45.5697 148.624 45.4045 149.3 45.4045C149.976 45.4045 150.578 45.5697 151.104 45.9001C151.631 46.2304 152.045 46.7001 152.347 47.3092C152.649 47.9183 152.8 48.641 152.8 49.4772ZM151.871 49.4772C151.871 48.7907 151.756 48.2113 151.526 47.739C151.299 47.2666 150.991 46.9092 150.601 46.6666C150.214 46.424 149.78 46.3027 149.3 46.3027C148.82 46.3027 148.385 46.424 147.996 46.6666C147.609 46.9092 147.3 47.2666 147.07 47.739C146.843 48.2113 146.73 48.7907 146.73 49.4772C146.73 50.1637 146.843 50.7431 147.07 51.2154C147.3 51.6877 147.609 52.0451 147.996 52.2878C148.385 52.5304 148.82 52.6517 149.3 52.6517C149.78 52.6517 150.214 52.5304 150.601 52.2878C150.991 52.0451 151.299 51.6877 151.526 51.2154C151.756 50.7431 151.871 50.1637 151.871 49.4772ZM154.414 53.4414V45.5129H157.093C157.713 45.5129 158.221 45.6188 158.619 45.8304C159.016 46.0394 159.31 46.3272 159.501 46.6937C159.692 47.0602 159.788 47.477 159.788 47.9441C159.788 48.4113 159.692 48.8255 159.501 49.1868C159.31 49.5481 159.017 49.832 158.622 50.0385C158.228 50.2424 157.723 50.3443 157.109 50.3443H154.941V49.4772H157.078C157.501 49.4772 157.842 49.4152 158.1 49.2914C158.36 49.1675 158.549 48.992 158.665 48.7649C158.784 48.5352 158.843 48.2616 158.843 47.9441C158.843 47.6267 158.784 47.3492 158.665 47.1118C158.546 46.8744 158.357 46.6911 158.096 46.5621C157.835 46.4304 157.491 46.3646 157.062 46.3646H155.374V53.4414H154.414ZM158.146 49.8798L160.097 53.4414H158.982L157.062 49.8798H158.146ZM161.388 53.4414V45.5129H164.066C164.686 45.5129 165.194 45.6188 165.592 45.8304C165.989 46.0394 166.283 46.3272 166.474 46.6937C166.665 47.0602 166.761 47.477 166.761 47.9441C166.761 48.4113 166.665 48.8255 166.474 49.1868C166.283 49.5481 165.991 49.832 165.596 50.0385C165.201 50.2424 164.696 50.3443 164.082 50.3443H161.914V49.4772H164.051C164.474 49.4772 164.815 49.4152 165.073 49.2914C165.334 49.1675 165.522 48.992 165.638 48.7649C165.757 48.5352 165.816 48.2616 165.816 47.9441C165.816 47.6267 165.757 47.3492 165.638 47.1118C165.519 46.8744 165.33 46.6911 165.069 46.5621C164.808 46.4304 164.464 46.3646 164.035 46.3646H162.348V53.4414H161.388ZM165.119 49.8798L167.071 53.4414H165.956L164.035 49.8798H165.119ZM175.05 49.4772C175.05 50.3134 174.899 51.036 174.597 51.6451C174.295 52.2542 173.881 52.7239 173.355 53.0543C172.828 53.3846 172.227 53.5498 171.551 53.5498C170.874 53.5498 170.273 53.3846 169.747 53.0543C169.22 52.7239 168.806 52.2542 168.504 51.6451C168.202 51.036 168.051 50.3134 168.051 49.4772C168.051 48.641 168.202 47.9183 168.504 47.3092C168.806 46.7001 169.22 46.2304 169.747 45.9001C170.273 45.5697 170.874 45.4045 171.551 45.4045C172.227 45.4045 172.828 45.5697 173.355 45.9001C173.881 46.2304 174.295 46.7001 174.597 47.3092C174.899 47.9183 175.05 48.641 175.05 49.4772ZM174.121 49.4772C174.121 48.7907 174.006 48.2113 173.777 47.739C173.55 47.2666 173.241 46.9092 172.851 46.6666C172.464 46.424 172.031 46.3027 171.551 46.3027C171.071 46.3027 170.636 46.424 170.246 46.6666C169.859 46.9092 169.551 47.2666 169.321 47.739C169.094 48.2113 168.98 48.7907 168.98 49.4772C168.98 50.1637 169.094 50.7431 169.321 51.2154C169.551 51.6877 169.859 52.0451 170.246 52.2878C170.636 52.5304 171.071 52.6517 171.551 52.6517C172.031 52.6517 172.464 52.5304 172.851 52.2878C173.241 52.0451 173.55 51.6877 173.777 51.2154C174.006 50.7431 174.121 50.1637 174.121 49.4772ZM178.105 53.4414L175.937 45.5129H176.912L178.569 51.9703H178.647L180.335 45.5129H181.419L183.107 51.9703H183.184L184.841 45.5129H185.816L183.649 53.4414H182.657L180.908 47.1234H180.846L179.096 53.4414H178.105Z" fill="black"/>
</svg>
