<svg width="485" height="299" viewBox="0 0 485 299" fill="none" xmlns="http://www.w3.org/2000/svg">
<g clip-path="url(#clip0_736_19975)">
<path opacity="0.1" d="M485 191.605C485.008 199.687 484.031 207.741 482.089 215.586C481.435 218.227 480.676 220.816 479.812 223.353C478.752 226.48 477.526 229.548 476.139 232.543C475.439 234.056 474.699 235.541 473.919 236.999C473.932 245.287 472.225 253.488 468.908 261.084C462.908 274.71 452.215 285.728 438.774 292.132C430.359 296.146 421.162 298.255 411.839 298.308H92.0694C77.8411 298.34 63.8581 294.604 51.5422 287.479C49.7222 286.425 47.9488 285.302 46.222 284.11C42.4729 281.52 38.9505 278.616 35.6929 275.43C31.2827 271.116 27.3974 266.297 24.1178 261.071C16.4126 248.837 12.3308 234.67 12.3451 220.211C4.5419 206.519 -0.00823975 190.118 -0.00823975 172.494C-0.00823975 150.258 7.22258 129.974 19.1024 114.619C21.5791 111.411 24.292 108.392 27.2185 105.588C30.106 102.814 33.2096 100.273 36.5 97.991C39.1315 96.1615 41.8829 94.5106 44.7355 93.0496C45.9256 92.4402 47.1197 91.872 48.3345 91.3408C49.401 90.8672 50.4798 90.4266 51.571 90.0107C52.8805 89.5111 54.2064 89.054 55.5488 88.6395C56.8912 88.225 58.2158 87.8599 59.5225 87.5442C61.4441 87.0747 63.3987 86.6932 65.3862 86.3994C67.0333 86.1565 68.6804 85.9877 70.3275 85.8559C71.637 85.7626 72.9574 85.7076 74.2888 85.6912H75.0094C76.4753 85.6912 77.933 85.7488 79.3784 85.8476C79.5307 85.5429 79.6954 85.2341 79.8478 84.9294C80.4243 83.8341 81.0214 82.7387 81.6226 81.664V81.6352C81.7255 81.4499 81.8285 81.2646 81.9355 81.0834C82.4214 80.2063 82.9279 79.3374 83.4468 78.4768C83.6856 78.065 83.9203 77.678 84.1632 77.2868C84.2168 77.1921 84.2703 77.1015 84.3321 77.0068C84.5791 76.595 84.8303 76.1832 85.0856 75.7714C86.3566 73.7428 87.6785 71.7456 89.051 69.7801C89.1705 69.6113 89.2816 69.4465 89.4011 69.2818C89.6152 68.9771 89.8128 68.6765 90.0517 68.3759C90.6199 67.5812 91.2046 66.7823 91.7935 65.9958C92.2053 65.4399 92.617 64.884 93.0618 64.3487C94.1324 62.9652 95.2318 61.5898 96.356 60.231C97.4801 58.8721 98.6661 57.505 99.8643 56.1667C100.029 55.9814 100.194 55.8002 100.367 55.6149L102.125 53.7002C102.211 53.6096 102.286 53.5272 102.368 53.4449C102.578 53.2184 102.78 52.9919 103.006 52.7696C103.949 51.773 104.917 50.7889 105.889 49.8171C110.852 44.8849 116.14 40.2902 121.717 36.0637C121.936 35.8908 122.158 35.7261 122.376 35.5614C123.422 34.7707 124.485 33.9925 125.547 33.2266C131.391 29.0359 137.5 25.226 143.834 21.8203C144.27 21.5733 144.715 21.3386 145.164 21.1038C150.844 18.1008 156.685 15.412 162.66 13.0495C165.916 11.762 169.23 10.5596 172.601 9.44229C174.833 8.71345 177.073 8.01754 179.342 7.38341C182.85 6.37592 186.402 5.46727 189.998 4.65744C200.593 2.28018 211.371 0.811669 222.216 0.267887C225.51 0.0949408 228.841 0.00846858 232.21 0.00846858C248.463 -0.0130484 264.652 2.03485 280.388 6.10278C280.55 6.34865 280.773 6.54908 281.034 6.68523C281.296 6.82138 281.588 6.88876 281.882 6.88104H283.266C283.867 7.04163 284.464 7.21046 285.065 7.38341C288.423 8.35246 291.732 9.40798 294.993 10.55L295.817 10.8465C303.866 13.7086 311.698 17.1491 319.251 21.1409C326.059 24.7321 332.615 28.7824 338.872 33.2636C339.836 33.9554 340.786 34.6541 341.722 35.3596C342.858 34.6266 344.014 33.928 345.189 33.2636C349.727 30.6808 354.546 28.6277 359.552 27.1446C370.018 24.0473 381.093 23.6142 391.769 25.8846C405.461 28.7876 417.856 35.9937 427.866 46.2429C431.944 50.4228 435.576 55.0155 438.704 59.9468C438.93 60.301 439.157 60.6592 439.375 61.0216C442.058 65.401 444.364 70.0006 446.268 74.7708C446.338 74.9438 446.408 75.1126 446.47 75.2856C448.228 79.7497 449.646 84.3404 450.711 89.0183C450.761 89.2531 450.818 89.4919 450.868 89.7307C451.864 94.2579 452.541 98.8496 452.894 103.472C452.894 103.636 452.894 103.805 452.927 103.974C453.1 106.365 453.187 108.782 453.19 111.226C453.19 113.408 453.116 115.574 452.98 117.719C452.98 117.954 452.947 118.201 452.927 118.44C452.89 119.066 452.836 119.675 452.783 120.305C455.927 122.841 458.871 125.616 461.586 128.607C462.786 129.916 463.947 131.276 465.07 132.687C468.491 136.973 471.497 141.574 474.047 146.428C480.998 159.597 485 175.055 485 191.605Z" fill="#2160AF"/>
<path opacity="0.1" d="M438.469 272.655C438.469 282.015 428.767 290.773 411.839 298.317H92.069C77.2739 298.317 63.4175 292.964 51.5419 283.629C48.5565 280.088 46.9835 276.419 46.9835 272.651C46.9835 262.702 57.9532 253.417 76.9197 245.568L77.455 245.354C82.8082 243.159 88.7913 241.088 95.3303 239.14C95.495 239.091 95.6638 239.046 95.8286 238.988C101.017 237.464 106.536 236.021 112.386 234.656C112.571 234.615 112.753 234.57 112.938 234.537C115.194 234.001 117.496 233.503 119.848 233.005L120.753 232.816C137.863 229.266 157.311 226.449 178.402 224.539H178.427C181.381 224.264 184.366 224.019 187.383 223.802C190.739 223.534 194.136 223.308 197.571 223.098C200.194 222.929 202.85 222.785 205.514 222.653C205.524 222.649 205.534 222.646 205.545 222.646C205.555 222.646 205.566 222.649 205.576 222.653C217.595 222.048 230.015 221.73 242.714 221.73C274.116 221.73 303.797 223.658 330.097 227.084C330.122 227.079 330.147 227.079 330.171 227.084C334.215 227.611 338.184 228.167 342.055 228.76C343.163 228.932 344.266 229.105 345.349 229.282C349.717 229.988 353.972 230.733 358.115 231.518C406.828 240.779 438.469 255.764 438.469 272.655Z" fill="#2160AF"/>
<path d="M358.864 100.178C358.864 100.178 354.507 98.411 340.647 104.765C326.787 111.118 325.057 110.316 321.471 109.36C317.884 108.405 315.883 108.158 312.037 102.85C312.037 102.85 309.323 88.1454 306.684 85.8642C304.044 83.5829 292.901 87.1654 292.901 87.1654C292.901 87.1654 279.523 90.2331 276.974 72.3414C276.974 72.3414 278.782 58.868 276.319 54.7338C276.319 54.7338 281.293 56.875 289.496 53.4161C297.699 49.9571 304.266 57.1427 304.266 57.1427C304.266 57.1427 306.325 62.4958 306.119 65.6912C305.914 68.8866 307.215 70.0848 311.127 68.5407C311.127 68.5407 313.05 65.8065 310.328 61.2852C307.606 56.7638 305.662 53.3996 306.42 49.8913C307.178 46.3829 309.364 41.5116 316.385 39.078C323.406 36.6444 332.939 36.1955 337.513 34.2725C342.088 32.3495 343.217 31.1224 343.217 31.1224C343.217 31.1224 340.4 33.9431 347.034 45.9053C353.667 57.8674 349.438 63.0558 349.438 63.0558C349.438 63.0558 345.91 71.4684 330.328 70.7849C330.328 70.7849 315.314 71.3325 323.501 77.6986C323.501 77.6986 328.743 76.6321 336.579 74.1409C344.415 71.6496 350.073 81.9317 351.477 89.0843C352.881 96.2369 358.864 100.178 358.864 100.178Z" fill="#2160AF"/>
<path d="M338.683 40.1813L338.765 40.1566C339.366 42.4379 332.658 51.6123 326.922 58.9049L326.856 58.8513C334.944 48.5816 339.148 41.9478 338.683 40.1813Z" fill="#444053"/>
<path d="M326.972 58.7115L327.009 58.8021C322.426 64.6247 316.665 71.5672 312.053 76.7268C311.612 77.2168 311.176 77.7316 310.756 78.2586L310.624 78.1516C311.036 77.6245 311.485 77.1057 311.925 76.6156C316.533 71.4767 322.385 64.5382 326.972 58.7115Z" fill="#444053"/>
<path d="M310.735 78.0201L310.826 78.1766C302.434 88.6563 301.878 104.942 301.858 105.07L300.087 103.011C300.107 102.879 302.286 88.574 310.735 78.0201Z" fill="#444053"/>
<path d="M349.15 94.4946C349.15 94.4946 339.268 89.3474 331.543 91.2004C323.818 93.0534 306.445 84.6531 306.445 84.6531C306.445 84.6531 299.074 81.6595 297.592 78.2458C297.592 78.2458 292.531 72.8927 292.239 70.1297C291.946 67.3667 287.025 60.4035 283.814 60.1359" stroke="#444053" stroke-width="0.411778" stroke-miterlimit="10"/>
<path d="M347.697 99.4485C347.697 99.4485 342.714 96.0884 343.295 92.1765" stroke="#444053" stroke-width="0.411778" stroke-miterlimit="10"/>
<path d="M340.054 103.784C340.054 103.784 332.926 101.198 332.23 91.0522" stroke="#444053" stroke-width="0.411778" stroke-miterlimit="10"/>
<path d="M328.561 106.412C328.561 106.412 321.75 100.763 324.011 90.8882" stroke="#444053" stroke-width="0.411778" stroke-miterlimit="10"/>
<path d="M314.73 103.653C314.73 103.653 310.2 94.1409 314.231 87.9519" stroke="#444053" stroke-width="0.411778" stroke-miterlimit="10"/>
<path d="M349.245 88.2236C349.245 88.2236 344.094 89.8707 345.197 92.572" stroke="#444053" stroke-width="0.411778" stroke-miterlimit="10"/>
<path d="M343.027 78.8887C343.027 78.8887 336.13 81.0752 335.969 90.8302" stroke="#444053" stroke-width="0.411778" stroke-miterlimit="10"/>
<path d="M333.408 76.6158C333.408 76.6158 327.128 84.3655 327.59 91.4069" stroke="#444053" stroke-width="0.411778" stroke-miterlimit="10"/>
<path d="M322.413 79.6543C322.413 79.6543 316.179 85.6169 316.974 88.9317" stroke="#444053" stroke-width="0.411778" stroke-miterlimit="10"/>
<path d="M318.654 77.5508C318.654 77.5508 312.807 78.5967 311.987 76.6779" stroke="#444053" stroke-width="0.411778" stroke-miterlimit="10"/>
<path d="M311.057 70.4923C311.057 70.4923 314.009 74.4042 314.763 73.5271" stroke="#444053" stroke-width="0.411778" stroke-miterlimit="10"/>
<path d="M340.342 68.0179C340.342 68.0179 325.601 69.0886 322.265 64.6414" stroke="#444053" stroke-width="0.411778" stroke-miterlimit="10"/>
<path d="M307.973 50.7769C307.973 50.7769 314.886 65.6214 319.914 67.5115" stroke="#444053" stroke-width="0.411778" stroke-miterlimit="10"/>
<path d="M315.212 43.7067C315.212 43.7067 319.457 57.3612 324.72 61.6231" stroke="#444053" stroke-width="0.411778" stroke-miterlimit="10"/>
<path d="M346.544 56.7473C346.544 56.7473 335.335 61.5569 328.606 56.6897" stroke="#444053" stroke-width="0.308833" stroke-miterlimit="10"/>
<path d="M325.193 40.7952C325.193 40.7952 327.754 50.8302 331.205 53.2556" stroke="#444053" stroke-width="0.308833" stroke-miterlimit="10"/>
<path d="M344.851 45.5017C344.851 45.5017 338.551 47.89 336.204 46.0617" stroke="#444053" stroke-width="0.308833" stroke-miterlimit="10"/>
<path d="M305.658 73.7704C305.658 73.7704 305.658 82.5207 303.278 83.1424" stroke="#444053" stroke-width="0.411778" stroke-miterlimit="10"/>
<path d="M286.185 85.1062C286.185 85.1062 295.656 85.9297 300.009 81.0337" stroke="#444053" stroke-width="0.411778" stroke-miterlimit="10"/>
<path d="M303.22 63.4349C303.22 63.4349 300.931 72.3087 294.614 74.7012" stroke="#444053" stroke-width="0.411778" stroke-miterlimit="10"/>
<path d="M280.511 75.7592C280.511 75.7592 287.206 78.0858 292.967 72.1603" stroke="#444053" stroke-width="0.411778" stroke-miterlimit="10"/>
<path d="M295.771 55.8042C295.771 55.8042 295.141 63.3397 291.044 66.8687" stroke="#444053" stroke-width="0.411778" stroke-miterlimit="10"/>
<path d="M280.766 64.2744C280.766 64.2744 286.321 64.3115 287.622 62.4996" stroke="#444053" stroke-width="0.411778" stroke-miterlimit="10"/>
<path d="M320.943 92.8892H162.738V172.749H320.943V92.8892Z" fill="#33323D"/>
<path d="M370.728 197.011H113.457V249.579H370.728V197.011Z" fill="#33323D"/>
<path d="M174.87 210.151H306.791L333.075 298.605H147.07L174.87 210.151Z" fill="white"/>
<path d="M106.127 165.671V192.968V198.716V249.575H155.409V201.055H328.776V249.575H378.057V198.716V192.968V165.671H106.127Z" fill="#504F60"/>
<path opacity="0.1" d="M378.057 165.671H106.127V192.964H378.057V165.671Z" fill="#33323D"/>
<path opacity="0.8" d="M363.402 183.365C365.635 183.365 367.446 181.554 367.446 179.321C367.446 177.088 365.635 175.278 363.402 175.278C361.169 175.278 359.358 177.088 359.358 179.321C359.358 181.554 361.169 183.365 363.402 183.365Z" fill="#8CCF4D"/>
<path opacity="0.8" d="M345.205 183.365C347.439 183.365 349.249 181.554 349.249 179.321C349.249 177.088 347.439 175.278 345.205 175.278C342.972 175.278 341.162 177.088 341.162 179.321C341.162 181.554 342.972 183.365 345.205 183.365Z" fill="#FA5959"/>
<path d="M315.133 73.6796H168.553V160.614H315.133V73.6796Z" fill="white"/>
<path d="M337.431 200.565C337.74 203.929 335.199 207.195 335.941 210.489C336.097 211.193 336.402 211.86 336.513 212.548C336.818 214.504 335.652 216.357 334.536 217.996L324.971 232.07C324.587 232.688 324.128 233.255 323.604 233.758C321.771 235.405 319.029 235.216 316.628 235.702C314.94 236.044 313.346 236.746 311.955 237.761C311.894 237.809 311.854 237.878 311.842 237.955C311.831 238.031 311.849 238.109 311.893 238.173C312.288 238.716 312.814 239.151 313.421 239.438C314.028 239.726 314.697 239.857 315.368 239.82C315.619 240.149 315.368 240.643 315.022 240.874C314.508 241.228 313.787 241.323 313.7 242.196C313.664 242.499 313.725 242.806 313.873 243.073C314.261 243.662 314.861 244.079 315.549 244.234C318.844 245.247 322.438 243.468 324.917 241.047C327.396 238.626 329.175 235.57 331.609 233.104C332.955 231.741 334.491 230.571 335.875 229.249C338.642 226.614 340.816 223.406 342.875 220.19C343.555 219.258 344.068 218.214 344.39 217.106C344.646 216.011 344.53 214.854 344.827 213.767C345.214 212.346 346.256 211.214 347.12 210.019C348.821 207.68 349.953 204.823 349.727 201.94C349.5 199.058 347.722 196.221 345.004 195.241C344.161 194.905 343.233 194.849 342.356 195.08C341.24 195.422 340.421 196.344 339.659 197.225L337.843 199.321C337.39 199.785 337.031 200.332 336.785 200.931C336.668 201.234 336.641 201.563 336.707 201.881C336.774 202.198 336.931 202.489 337.159 202.719" fill="#FBBEBE"/>
<path opacity="0.05" d="M337.431 200.565C337.74 203.929 335.199 207.195 335.941 210.489C336.097 211.193 336.402 211.86 336.513 212.548C336.818 214.504 335.652 216.357 334.536 217.996L324.971 232.07C324.587 232.688 324.128 233.255 323.604 233.758C321.771 235.405 319.029 235.216 316.628 235.702C314.94 236.044 313.346 236.746 311.955 237.761C311.894 237.809 311.854 237.878 311.842 237.955C311.831 238.031 311.849 238.109 311.893 238.173C312.288 238.716 312.814 239.151 313.421 239.438C314.028 239.726 314.697 239.857 315.368 239.82C315.619 240.149 315.368 240.643 315.022 240.874C314.508 241.228 313.787 241.323 313.7 242.196C313.664 242.499 313.725 242.806 313.873 243.073C314.261 243.662 314.861 244.079 315.549 244.234C318.844 245.247 322.438 243.468 324.917 241.047C327.396 238.626 329.175 235.57 331.609 233.104C332.955 231.741 334.491 230.571 335.875 229.249C338.642 226.614 340.816 223.406 342.875 220.19C343.555 219.258 344.068 218.214 344.39 217.106C344.646 216.011 344.53 214.854 344.827 213.767C345.214 212.346 346.256 211.214 347.12 210.019C348.821 207.68 349.953 204.823 349.727 201.94C349.5 199.058 347.722 196.221 345.004 195.241C344.161 194.905 343.233 194.849 342.356 195.08C341.24 195.422 340.421 196.344 339.659 197.225L337.843 199.321C337.39 199.785 337.031 200.332 336.785 200.931C336.668 201.234 336.641 201.563 336.707 201.881C336.774 202.198 336.931 202.489 337.159 202.719" fill="black"/>
<path d="M344.674 287.158C342.582 288.43 339.98 288.512 337.55 288.212C337.139 288.166 336.698 288.138 336.447 288.438C336.085 288.879 336.513 289.521 336.953 289.875C338.389 290.95 340.073 291.643 341.849 291.889C343.435 292.11 345.034 292.216 346.634 292.206C350.999 292.28 355.389 292.354 359.712 291.724C359.962 291.705 360.205 291.634 360.425 291.514C360.704 291.319 360.897 291.024 360.964 290.691C361.265 289.571 360.692 288.36 359.832 287.582C358.971 286.803 357.863 286.367 356.78 285.935L352.984 284.456C352.09 284.106 350.661 283.188 349.69 283.258C347.915 283.402 346.181 286.276 344.674 287.158Z" fill="#3F3D56"/>
<path opacity="0.05" d="M344.674 287.158C342.582 288.43 339.98 288.512 337.55 288.212C337.139 288.166 336.698 288.138 336.447 288.438C336.085 288.879 336.513 289.521 336.953 289.875C338.389 290.95 340.073 291.643 341.849 291.889C343.435 292.11 345.034 292.216 346.634 292.206C350.999 292.28 355.389 292.354 359.712 291.724C359.962 291.705 360.205 291.634 360.425 291.514C360.704 291.319 360.897 291.024 360.964 290.691C361.265 289.571 360.692 288.36 359.832 287.582C358.971 286.803 357.863 286.367 356.78 285.935L352.984 284.456C352.09 284.106 350.661 283.188 349.69 283.258C347.915 283.402 346.181 286.276 344.674 287.158Z" fill="black"/>
<path d="M347.322 236.735C345.745 238.839 344.106 241.265 344.497 243.871C344.707 245.275 345.494 246.515 346.07 247.812C346.792 249.597 347.326 251.451 347.664 253.346C348.257 256.101 348.85 258.864 349.212 261.66C349.624 264.818 347.688 273.956 347.507 277.139C347.462 277.905 347.375 278.737 346.84 279.288C346.63 279.507 346.35 279.7 346.26 279.968C346.202 280.24 346.246 280.524 346.383 280.767C347.277 282.78 349.101 284.275 351.127 285.131C353.153 285.988 358.082 287.458 360.281 287.536C360.573 287.571 360.869 287.532 361.141 287.421C361.438 287.243 361.671 286.977 361.808 286.659C363.398 283.624 361.87 272.819 361.895 269.389C361.895 266.507 362.591 263.69 362.467 260.832C362.364 258.539 361.751 256.303 361.528 254.013C361.162 250.262 361.849 246.498 362.541 242.792C363.068 239.955 363.595 237.114 364.271 234.306C364.682 232.597 365.16 230.867 366.103 229.364C366.848 228.183 367.861 227.198 368.714 226.07C371.076 222.973 372.125 219.071 371.633 215.207C371.584 214.829 366.148 216.587 365.675 216.793C363.724 217.622 361.929 218.778 360.367 220.211C359.132 221.405 358.123 223.007 357.019 224.349C355.463 226.243 353.927 228.152 352.412 230.077C350.69 232.287 348.994 234.506 347.322 236.735Z" fill="#464353"/>
<path opacity="0.05" d="M347.322 236.599C345.745 238.703 344.106 241.129 344.497 243.74C344.707 245.14 345.494 246.379 346.07 247.676C346.791 249.461 347.325 251.316 347.664 253.21C348.257 255.965 348.85 258.728 349.212 261.524C349.624 264.683 347.688 273.824 347.507 277.007C347.462 277.769 347.375 278.605 346.84 279.152C346.63 279.371 346.35 279.564 346.26 279.832C346.197 280.112 346.241 280.406 346.383 280.655C347.277 282.665 349.101 284.164 351.127 285.016C353.153 285.869 358.082 286.663 360.281 286.733C360.573 286.768 360.869 286.729 361.141 286.618C361.438 286.44 361.671 286.174 361.808 285.856C363.398 282.821 361.87 272.704 361.895 269.278C361.895 266.396 362.591 263.575 362.467 260.717C362.364 258.424 361.751 256.188 361.528 253.898C361.162 250.147 361.849 246.383 362.541 242.681C363.068 239.84 363.595 236.999 364.271 234.19C364.682 232.482 365.16 230.752 366.103 229.249C366.848 228.071 367.861 227.083 368.714 225.98C371.073 222.881 372.122 218.98 371.633 215.117C371.584 214.734 366.148 216.492 365.675 216.702C363.723 217.532 361.927 218.691 360.367 220.128C359.132 221.326 358.123 222.924 357.019 224.246C355.463 226.14 353.927 228.051 352.412 229.978C350.69 232.174 348.994 234.381 347.322 236.599Z" fill="black"/>
<path d="M329.743 190.406C334.64 190.406 338.609 186.437 338.609 181.541C338.609 176.644 334.64 172.675 329.743 172.675C324.847 172.675 320.878 176.644 320.878 181.541C320.878 186.437 324.847 190.406 329.743 190.406Z" fill="#FBBEBE"/>
<path d="M337.724 181.17C338.542 182.477 339.616 183.607 340.88 184.491C342.144 185.375 343.573 185.996 345.082 186.317L344.415 188.734C343.262 192.906 341.944 197.316 338.745 200.206C339.095 198.794 338.642 197.274 337.843 196.06C336.989 194.878 335.976 193.819 334.833 192.914L329.731 188.475C329.579 188.362 329.449 188.223 329.348 188.063C329.225 187.751 329.225 187.403 329.348 187.091C329.999 185.069 331.856 183.797 333.359 182.438C334.115 181.73 334.791 180.942 335.376 180.087C336.422 178.633 337.052 180.087 337.724 181.17Z" fill="#FBBEBE"/>
<path d="M318.061 172.63L317.864 170.983C319.264 171.345 320.59 170.159 321.483 168.924C322.377 167.689 323.208 166.239 324.571 165.729C326.219 165.103 327.981 166.103 329.562 166.927C331.335 167.913 333.281 168.55 335.294 168.8C335.615 168.811 335.934 168.864 336.241 168.957C337.271 169.323 337.761 170.604 337.909 171.786C338.057 172.968 338.016 174.203 338.527 175.249C338.91 176.04 339.572 176.628 339.976 177.407C341.059 179.507 340.013 182.373 341.158 184.432L338.317 181.825C338.053 181.586 337.687 181.339 337.402 181.541C337.118 181.743 337.159 182.047 337.065 182.323C336.789 183.147 335.78 183.377 335.043 183.06C334.306 182.743 333.775 182.043 333.235 181.413C331.979 179.931 330.485 178.63 328.706 177.995C327.936 177.7 327.112 177.573 326.289 177.622C325.466 177.671 324.663 177.895 323.933 178.28C322.607 179.029 321.635 180.775 320.013 180.837C317.785 180.919 316.859 176.772 315.825 175.134C316.202 174.849 316.466 174.441 316.573 173.981C316.68 173.522 316.622 173.039 316.41 172.618C316.591 172.548 318.032 172.362 318.061 172.63Z" fill="#464353"/>
<path d="M355.014 287.088C353.262 288.65 350.987 289.498 348.64 289.464C348.043 289.464 347.215 289.579 347.211 290.176C347.221 290.354 347.281 290.525 347.384 290.67C348.127 291.906 349.3 292.823 350.678 293.248C351.955 293.635 353.322 293.569 354.656 293.503L358.547 293.302C359.28 293.26 360.017 293.223 360.75 293.133C361.483 293.042 362.274 292.89 363.04 292.779C364.916 292.51 366.813 292.421 368.706 292.511C369.208 292.532 369.789 292.511 370.102 292.132C370.415 291.753 370.246 291.07 370.13 290.522C369.9 289.394 370.13 288.212 369.916 287.08C369.542 285.091 367.833 283.571 365.947 282.851C364.197 282.184 361.092 281.422 359.432 282.53C357.654 283.724 356.583 285.667 355.014 287.088Z" fill="#3F3D56"/>
<path d="M358.868 220.54C359.214 222.188 360.791 223.423 360.841 225.07C360.878 226.404 359.922 227.541 359.239 228.673C358.586 229.859 358.035 231.099 357.592 232.379C356.292 235.701 354.682 238.893 352.782 241.912C351.868 243.357 350.847 244.93 351.057 246.631C351.201 247.424 351.479 248.188 351.88 248.887L354.619 254.327C355.22 255.413 355.69 256.568 356.019 257.765C356.253 258.799 356.278 259.869 356.431 260.923C356.863 264.259 358.428 267.619 357.505 270.851C357.423 271.131 357.135 271.469 356.916 271.263C357.818 272.951 358.564 274.656 358.477 276.571C358.44 277.576 358.131 278.63 358.506 279.561C358.718 279.923 358.858 280.323 358.918 280.738C358.918 281.01 358.79 281.269 358.761 281.562C358.687 282.332 359.391 282.974 360.128 283.209C360.865 283.444 361.66 283.435 362.401 283.658C363.83 284.069 364.843 285.305 366.066 286.161C367.305 287.02 368.768 287.497 370.274 287.533C370.488 287.555 370.704 287.512 370.892 287.409C371 287.315 371.087 287.2 371.146 287.07C371.206 286.94 371.237 286.798 371.238 286.655C371.304 285.974 371.201 285.286 370.938 284.653C370.675 284.021 370.26 283.462 369.731 283.028C369.501 282.881 369.31 282.68 369.175 282.443C369.106 282.232 369.087 282.008 369.121 281.788C369.344 278.795 369.29 275.787 368.961 272.803C368.812 271.858 368.764 270.9 368.817 269.945C368.899 269.151 369.138 268.36 369.047 267.565C368.957 266.771 368.557 266.054 368.319 265.288C367.907 263.929 368.014 262.472 367.969 261.047C367.894 258.576 367.33 256.155 366.766 253.75C366.548 252.807 366.301 251.815 365.63 251.115C365.061 250.522 364.143 249.95 364.357 249.159C364.474 248.866 364.651 248.601 364.876 248.381C365.142 248.049 365.337 247.666 365.449 247.256C365.562 246.846 365.59 246.418 365.531 245.997C365.772 246.061 366.027 246.038 366.253 245.933C366.479 245.827 366.661 245.646 366.766 245.42C371.217 243.324 374.816 239.124 376.402 234.463C376.491 234.119 376.629 233.79 376.814 233.487C377.225 232.91 377.942 232.663 378.576 232.342C380.569 231.341 381.948 229.46 383.213 227.619C383.95 226.548 384.683 225.445 385 224.189C385.173 223.377 385.256 222.548 385.247 221.718L385.358 217.427C385.38 217.15 385.352 216.871 385.276 216.604C385.171 216.348 385.014 216.116 384.814 215.924C383.607 214.639 382.02 213.773 380.285 213.454C379.115 213.244 377.921 213.285 376.739 213.186C374.446 212.997 372.181 212.288 369.887 212.453C366.28 212.717 363.072 215.216 361.372 218.407C360.775 219.548 360.149 220.54 358.868 220.54Z" fill="#464353"/>
<path d="M338.856 192.638C338.908 193.3 338.819 193.965 338.596 194.59C338.316 195.191 337.608 195.657 336.994 195.414C337.18 195.002 336.686 194.512 336.229 194.565C336.002 194.616 335.792 194.72 335.616 194.87C335.439 195.02 335.302 195.211 335.216 195.426C334.908 196.038 334.806 196.732 334.923 197.407C335.067 198.23 335.553 199.054 335.426 199.877C335.323 200.577 334.808 201.277 335.084 201.936C335.261 202.232 335.483 202.499 335.743 202.727C336.105 203.171 336.282 203.737 336.238 204.308C336.195 204.879 335.933 205.411 335.508 205.795L342.418 205.931C342.166 207.088 342.681 208.269 343.274 209.295C344.933 212.113 347.223 214.509 349.962 216.295C352.702 218.081 355.818 219.208 359.066 219.589C358.89 219.693 358.74 219.834 358.626 220.002C358.512 220.171 358.436 220.362 358.405 220.564C358.373 220.765 358.386 220.97 358.444 221.166C358.501 221.361 358.601 221.541 358.736 221.693C359.296 222.249 360.248 222.179 360.952 221.817C361.656 221.455 362.212 220.857 362.854 220.396C363.987 219.589 365.372 219.215 366.758 219.342C367.623 219.424 368.463 219.705 369.331 219.754C371.893 219.89 374.092 218.049 376.542 217.283C378.337 216.731 380.367 216.731 381.895 215.611C382.545 215.13 383.077 214.339 382.887 213.553C382.726 213.101 382.472 212.689 382.142 212.342C381.273 211.222 380.762 209.871 380.145 208.599C378.913 206.077 377.218 203.809 375.15 201.912C373.592 200.546 371.94 199.29 370.208 198.152C369.787 197.838 369.338 197.562 368.866 197.328C368.237 197.124 367.623 196.875 367.03 196.583C366.206 196.073 365.749 195.171 365.127 194.442C363.756 192.844 361.652 192.107 359.963 190.851C358.831 190.028 357.835 188.899 356.48 188.492C355.825 188.294 355.125 188.278 354.466 188.08C352.976 187.627 351.888 186.301 350.423 185.766C349.261 185.354 347.985 185.453 346.758 185.3C345.408 185.133 344.118 184.643 342.998 183.872C342.626 183.572 342.209 183.333 341.763 183.163C339.914 182.599 339.762 186.046 339.589 187.244C339.313 189.076 338.856 190.839 338.856 192.638Z" fill="#2160AF"/>
<path d="M340.66 204.209C340.968 207.573 338.428 210.834 339.169 214.133C339.325 214.837 339.63 215.504 339.741 216.192C340.05 218.148 338.881 220.001 337.765 221.635L328.199 235.677C327.815 236.294 327.356 236.861 326.832 237.365C325 239.012 322.257 238.823 319.856 239.309C318.169 239.652 316.575 240.354 315.183 241.368C315.122 241.416 315.082 241.485 315.071 241.561C315.059 241.638 315.077 241.716 315.121 241.779C315.516 242.323 316.041 242.759 316.648 243.047C317.256 243.335 317.926 243.465 318.596 243.427C318.848 243.76 318.596 244.25 318.251 244.481C317.736 244.839 317.015 244.934 316.929 245.807C316.893 246.11 316.953 246.417 317.102 246.684C317.49 247.272 318.09 247.688 318.778 247.845C322.072 248.858 325.667 247.079 328.146 244.658C330.624 242.237 332.403 239.181 334.841 236.715C336.188 235.352 337.724 234.182 339.103 232.86C341.874 230.225 344.024 227.017 346.103 223.801C346.782 222.868 347.295 221.825 347.619 220.717C347.874 219.622 347.759 218.465 348.055 217.378C348.442 215.957 349.484 214.82 350.349 213.63C352.049 211.291 353.182 208.434 352.955 205.551C352.729 202.669 350.95 199.832 348.232 198.852C347.39 198.514 346.461 198.458 345.584 198.691C344.473 199.033 343.649 199.955 342.887 200.836L341.071 202.932C340.619 203.395 340.26 203.942 340.017 204.542C339.899 204.844 339.872 205.172 339.938 205.489C340.003 205.806 340.16 206.096 340.388 206.325" fill="#FBBEBE"/>
<path d="M345.502 190.385C344.242 190.459 342.858 190.583 341.969 191.481C341.598 191.893 341.298 192.363 341.079 192.872C340.219 194.631 339.379 196.467 339.317 198.423C339.263 199.988 339.729 201.516 339.955 203.064C340.153 204.349 339.65 205.658 339.543 206.959C341.104 206.482 343.163 205.831 344.579 205.024C345.507 204.417 346.494 203.904 347.524 203.492C349.027 202.994 351.551 203.85 352.967 204.555C353.046 203.55 352.296 201.808 352.374 200.803C352.387 200.383 352.462 199.966 352.597 199.568C352.81 199.146 353.062 198.745 353.35 198.37C353.896 197.486 354.148 196.451 354.069 195.415C353.99 194.38 353.584 193.395 352.91 192.605C351.646 191.18 349.661 190.645 347.771 190.426C346.579 190.287 345.378 190.245 344.18 190.299" fill="#2160AF"/>
<path d="M158.946 161.577L150.826 149.801C150.826 149.801 150.674 146.885 150.142 146.206C149.611 145.526 150.027 144.011 150.027 144.011C150.027 144.011 150.599 143.187 150.105 143.101C149.611 143.015 150.027 141.17 150.027 141.17L149.99 138.217C149.99 138.217 150.447 135.376 150.068 134.697C149.956 134.512 149.9 134.299 149.907 134.084C149.913 133.868 149.982 133.659 150.105 133.482C150.105 133.482 150.558 131.855 150.105 131.423C149.652 130.991 149.764 128.471 149.875 126.461C149.986 124.452 149.08 123.319 149.08 123.019C149.08 122.718 146.082 119.761 146.082 119.494C146.082 119.226 144.184 118.131 143.043 117.847C141.903 117.563 141.339 117.316 141.376 117.163C141.413 117.011 139.593 116.41 139.593 116.41C139.593 116.41 137.999 116.294 137.39 115.5C136.78 114.705 134.919 114.474 134.874 114.466L134.837 114.31C134.837 114.252 134.816 114.194 134.804 114.137C134.954 113.897 135.091 113.65 135.215 113.395L135.322 113.165C135.989 113.169 136.641 112.966 137.188 112.584C137.457 112.361 137.677 112.084 137.834 111.772C137.99 111.459 138.08 111.117 138.098 110.768C138.13 110.068 137.977 109.372 137.653 108.751C137.32 108.071 136.83 107.363 137.003 106.622C137.077 106.305 137.266 106.025 137.365 105.712C137.512 105.101 137.415 104.456 137.093 103.916C136.805 103.369 136.405 102.883 136.084 102.352C135.677 101.671 135.404 100.919 135.281 100.136C135.258 99.7195 135.159 99.3106 134.989 98.9296C134.817 98.6612 134.589 98.4324 134.322 98.2584C133.134 97.4108 131.7 96.9768 130.241 97.0231C129.208 97.056 128.182 97.336 127.153 97.2084C126.539 97.1029 125.936 96.9459 125.349 96.739C124.077 96.3601 122.607 96.2078 121.499 96.9366C120.391 97.6655 119.951 99.0985 119.197 100.231C118.534 101.219 117.55 102.051 117.056 103.113C117.056 103.113 117.056 103.072 117.056 103.056C116.932 103.297 116.836 103.553 116.772 103.817C116.631 104.656 116.688 105.517 116.941 106.329C116.996 106.767 117.216 107.167 117.554 107.449C117.929 107.692 118.444 107.635 118.88 107.713L118.831 107.927C118.386 110.056 118.758 112.273 119.873 114.141C120.987 116.008 122.762 117.388 124.847 118.007C124.847 118.086 124.847 118.16 124.847 118.238C124.846 118.455 124.832 118.673 124.806 118.889C124.806 118.889 120.989 118.102 119.963 118.633C118.938 119.164 116.928 119.58 116.624 119.869C116.319 120.157 115.561 119.947 114.878 121.726C114.194 123.505 114.12 125.32 113.231 126.156C112.341 126.992 111.905 127.556 111.864 128.162C111.822 128.767 111.979 128.919 111.637 129.109C111.295 129.298 110.813 130.093 110.953 130.398C111.006 130.606 110.995 130.825 110.921 131.027C110.848 131.229 110.716 131.404 110.542 131.53C110.362 131.657 110.218 131.828 110.125 132.028C110.031 132.227 109.992 132.447 110.011 132.667C110.011 132.667 109.78 133.49 109.249 133.692C108.718 133.894 108.376 135.129 108.376 135.129L106.655 137.106L103.245 133.334C102.989 133.052 102.632 132.883 102.251 132.863C101.871 132.844 101.498 132.976 101.215 133.231L99.539 134.738C98.8932 134.895 98.3093 135.242 97.8631 135.734C97.4999 136.111 97.2058 136.549 96.9942 137.027L96.0801 137.851C95.7913 138.209 95.6145 138.644 95.572 139.102C95.5296 139.559 95.6232 140.02 95.8412 140.424L98.0278 142.842V142.862C97.2532 142.93 96.5171 143.23 95.9154 143.723C92.6541 146.605 92.6211 149.253 93.107 150.464C93.5929 151.674 97.7354 156.331 97.7354 156.331C97.7354 156.331 100.14 159.457 103.611 161.116L103.587 161.145C103.515 161.22 103.448 161.298 103.385 161.38L103.327 161.454L103.274 161.528L103.212 161.619C103.195 161.642 103.18 161.667 103.167 161.693L103.101 161.8C103.086 161.824 103.072 161.848 103.06 161.874C103.031 161.923 103.006 161.973 102.981 162.022C102.972 162.038 102.964 162.055 102.957 162.072C102.924 162.138 102.891 162.203 102.862 162.278L102.829 162.352C102.809 162.401 102.792 162.45 102.771 162.504C102.759 162.536 102.748 162.569 102.739 162.603L102.689 162.751C102.676 162.786 102.665 162.822 102.656 162.858C102.656 162.912 102.623 162.965 102.611 163.023C102.599 163.08 102.59 163.089 102.582 163.126C102.574 163.163 102.541 163.303 102.524 163.398C102.524 163.43 102.524 163.468 102.504 163.505C102.483 163.542 102.483 163.632 102.471 163.698C102.459 163.764 102.471 163.789 102.471 163.838L102.446 164.023V164.172C102.446 164.242 102.446 164.312 102.426 164.386C102.405 164.46 102.426 164.472 102.426 164.518C102.426 164.637 102.426 164.756 102.426 164.884C102.351 169.315 102.611 169.957 102.611 169.957C102.78 170.366 103.056 170.723 103.411 170.988C103.765 171.254 104.184 171.42 104.624 171.468C104.84 171.485 105.058 171.474 105.271 171.435C107.247 171.094 111.859 170.299 113.506 170.612C114.491 170.793 116.307 170.521 117.6 170.278L117.941 170.212L118.176 170.966L118.925 170.76L119.564 171.127L119.976 171.361C120.725 173.898 123.764 173.033 123.764 173.033L124.484 173.445L131.81 173.634C132.632 174.13 133.501 174.544 134.404 174.87C134.524 174.909 134.646 174.936 134.771 174.952C135.456 175.008 136.143 175.02 136.83 174.989C137.39 174.989 137.822 174.952 137.822 174.952C137.822 174.952 137.748 172.963 137.641 170.735C139.912 170.679 142.177 170.494 144.427 170.18C148.339 169.496 149.969 165.938 150.571 164.036C150.751 164.813 150.878 165.601 150.954 166.395C151.113 167.094 151.317 167.781 151.563 168.454C151.773 168.992 152.049 169.501 152.387 169.97C155.269 168.985 153.523 167.499 152.918 166.865C152.312 166.231 153.33 165.691 153.33 165.691C153.33 165.691 154.128 165.16 154.05 164.67C153.972 164.18 153.935 163.649 156.521 163.686C159.107 163.723 158.946 161.577 158.946 161.577ZM118.872 137.402C118.905 137.616 119.284 139.951 119.588 140.564C119.679 140.97 119.709 141.386 119.675 141.8C118.147 141.676 116.554 141.61 116.554 141.61C116.598 141.666 116.627 141.733 116.636 141.804L116.393 141.75L116.047 141.668L118.864 137.381L118.872 137.402ZM113.288 146.28L115.936 146.692L116.158 146.725C116.083 147.133 116.038 147.545 116.022 147.96C116.022 148.001 116.08 148.046 116.167 148.1C116.13 148.308 116.113 148.519 116.117 148.73C116.158 148.936 117.394 149.389 118.814 149.764C118.794 149.842 118.777 149.916 118.757 149.982C117.501 149.323 115.528 149.014 115.302 148.524C115.075 148.034 108.355 145.687 108.355 145.687L107.688 145.353L109.455 145.687L109.941 145.638C111.041 145.924 112.16 146.139 113.288 146.28Z" fill="url(#paint0_linear_736_19975)"/>
<path d="M150.307 163.225C150.307 163.225 149.257 169.583 143.916 170.522C138.575 171.46 120.745 171.275 120.745 171.275C120.745 171.275 110.55 169.805 106.864 161.195C103.179 152.585 100.807 149.154 103.982 149.006C107.157 148.858 124.184 154.771 125.16 154.837C126.136 154.903 151.25 141.747 150.307 163.225Z" fill="#65617D"/>
<path opacity="0.05" d="M150.307 163.225C150.307 163.225 149.257 169.583 143.916 170.522C138.575 171.46 120.745 171.275 120.745 171.275C120.745 171.275 110.55 169.805 106.864 161.195C103.179 152.585 100.807 149.154 103.982 149.006C107.157 148.858 124.184 154.771 125.16 154.837C126.136 154.903 151.25 141.747 150.307 163.225Z" fill="black"/>
<path d="M102.495 170.303C102.661 170.71 102.934 171.065 103.285 171.33C103.635 171.594 104.051 171.759 104.488 171.806C104.705 171.82 104.922 171.807 105.135 171.769C107.091 171.432 111.678 170.641 113.296 170.946C114.268 171.123 116.068 170.855 117.348 170.616C118.201 170.456 118.827 170.303 118.827 170.303C118.827 170.303 117.319 165.3 117.134 165.152C116.949 165.004 110.36 161.034 110.36 161.034L105.147 160.659C104.445 160.764 103.811 161.136 103.377 161.697C102.829 162.364 102.355 163.455 102.322 165.247C102.236 169.657 102.495 170.303 102.495 170.303Z" fill="#3F3D56"/>
<path opacity="0.05" d="M102.495 170.304C102.661 170.711 102.933 171.065 103.284 171.33C103.635 171.595 104.051 171.759 104.488 171.807C103.978 171.147 103.505 170.46 103.072 169.748L103.101 166.099C102.997 165.099 103.129 164.088 103.487 163.147C103.844 162.207 104.417 161.363 105.159 160.684C105.159 160.684 102.413 160.87 102.335 165.272C102.256 169.674 102.495 170.304 102.495 170.304Z" fill="black"/>
<path opacity="0.1" d="M125.106 162.323L129.961 158.523L137.596 150.999L135.537 150.905C135.228 151.102 134.363 151.728 134.33 152.478C134.293 153.396 132.271 152.544 131.213 153.067C130.155 153.59 125.007 160.19 124.106 160.145C123.204 160.1 122.487 159.688 122.109 160.33L122.084 160.372L125.106 162.323Z" fill="black"/>
<path opacity="0.1" d="M103.364 161.706C103.537 161.788 103.714 161.87 103.891 161.944C107.577 163.526 112.127 166.836 112.468 167.438C112.674 167.804 115.314 169.406 117.348 170.608C118.2 170.448 118.826 170.295 118.826 170.295C118.826 170.295 117.319 165.292 117.134 165.144C116.949 164.996 110.36 161.026 110.36 161.026L105.147 160.651C104.438 160.758 103.799 161.136 103.364 161.706Z" fill="black"/>
<path d="M93.1356 150.925C93.6215 152.128 97.7228 156.756 97.7228 156.756C97.7228 156.756 100.317 160.141 104.007 161.697C107.696 163.254 112.242 166.589 112.58 167.19C112.798 167.577 115.738 169.348 117.805 170.563L118.27 170.835L119.296 171.432L119.839 171.74C119.839 171.74 121.099 170.732 122.355 169.715C123.611 168.697 124.826 167.701 124.826 167.656C124.826 167.61 125.353 166.264 125.238 166.19C125.122 166.116 124.921 165.63 124.443 165.024C123.939 164.353 123.283 163.811 122.528 163.443C121.437 162.882 120.566 161.97 120.058 160.853C120.058 160.853 119.893 160.734 119.646 160.573C119.134 160.221 118.562 159.966 117.958 159.82C117.134 159.717 115.586 158.024 115.586 158.024C114.984 157.632 114.482 157.105 114.12 156.484C113.708 155.661 107.89 151.65 107.35 151.279L121.491 160.363L124.875 162.537L129.73 158.741L137.365 151.217L134.845 151.102C131.139 150.942 124.55 150.69 123.727 150.88C123.052 151.035 122.357 151.081 121.668 151.016C121.668 151.016 119.79 151.098 118.546 150.443C117.303 149.789 115.347 149.48 115.12 148.994C114.894 148.508 108.24 146.177 108.24 146.177C108.24 146.177 99.1805 141.364 95.9398 144.221C92.6991 147.079 92.6456 149.714 93.1356 150.925Z" fill="#65617D"/>
<path d="M122.36 123.315L123.525 127.19L125.032 135.916L130.562 136.29L132.144 133.655L133.741 131.003C133.741 131.003 134.738 127.478 135.454 124.069C136.084 121.05 136.5 118.118 135.813 117.801C135.199 117.521 134.8 116.504 134.536 115.409C134.503 115.277 134.474 115.137 134.45 114.997C134.265 114.072 134.141 113.135 134.079 112.193C134.079 112.193 122.496 111.592 124.114 116.368C124.403 117.184 124.55 118.044 124.55 118.909C124.55 119.131 124.55 119.35 124.509 119.556C124.429 120.296 124.197 121.013 123.827 121.66C123.457 122.307 122.957 122.87 122.36 123.315Z" fill="#EE8E9E"/>
<path d="M119.955 122.677L120.366 129.266L121.305 134.87L122.359 137.468L123.302 151.666C123.302 151.666 132.361 152.716 134.577 151.646C134.74 151.583 134.883 151.476 134.989 151.337C137.653 147.314 136.78 135.66 136.78 135.66L137.793 128.137L137.117 124.234L135.47 124.061L134.21 123.925C134.21 123.925 133.926 124.275 133.514 124.818C132.399 126.288 130.348 129.187 130.488 130.394C130.673 132.041 130.261 133.742 129.619 134.005C128.977 134.269 128.454 134.722 128.342 134.269C128.182 133.889 128.142 133.469 128.227 133.066C128.342 132.424 127.737 130.468 127.737 130.468C127.737 130.468 126.724 128.174 126.798 127.198C126.872 126.223 126.687 125.09 126.387 124.827C126.086 124.563 125.67 124.3 126.008 123.097C126.345 121.895 124.525 119.552 124.525 119.552L119.955 122.677Z" fill="#E3E8F4"/>
<path opacity="0.1" d="M131.933 139.116L132.312 150.361L134.482 151.568C134.645 151.502 134.787 151.394 134.894 151.255C137.558 147.232 136.685 135.578 136.685 135.578L137.702 128.055L137.023 124.152L135.376 123.979C136.01 120.96 136.422 118.032 135.734 117.711C135.12 117.431 134.721 116.414 134.462 115.323L133.288 123.279C133.288 123.279 133.387 123.995 133.42 124.736C133.469 125.205 133.436 125.678 133.325 126.136C133.173 126.752 133.148 127.392 133.251 128.018C132.571 129.212 132.234 131.428 132.069 133.565C131.847 136.406 131.933 139.116 131.933 139.116Z" fill="black"/>
<path d="M134.495 115.125C134.495 115.125 136.393 115.36 136.994 116.15C137.595 116.941 139.177 117.056 139.177 117.056C139.177 117.056 140.98 117.658 140.943 117.806C140.906 117.954 141.47 118.185 142.59 118.485C143.71 118.786 145.6 119.877 145.6 120.132C145.6 120.388 148.569 123.328 148.569 123.628C148.569 123.929 149.471 125.057 149.36 127.05C149.249 129.043 149.133 131.58 149.586 131.992C150.039 132.403 149.586 134.022 149.586 134.022C149.465 134.198 149.396 134.405 149.39 134.619C149.383 134.833 149.439 135.045 149.549 135.228C149.924 135.903 149.471 138.724 149.471 138.724L149.512 141.66C149.512 141.66 149.1 143.501 149.586 143.579C150.072 143.657 149.512 144.481 149.512 144.481C149.512 144.481 149.1 145.984 149.623 146.663C150.146 147.343 150.299 150.233 150.299 150.233L158.349 161.932C158.349 161.932 158.464 164.077 155.907 164.04C153.35 164.003 153.383 164.53 153.461 165.016C153.539 165.502 152.745 166.033 152.745 166.033C152.745 166.033 151.732 166.56 152.333 167.199C152.934 167.837 154.664 169.307 151.806 170.283C151.469 169.818 151.192 169.313 150.982 168.78C150.74 168.116 150.539 167.438 150.381 166.75C150.381 166.75 150.117 163.888 149.59 163.513C149.063 163.138 149.137 161.331 149.137 161.331C149.137 161.331 149.891 159.865 148.837 159.272C147.783 158.679 132.514 150.213 132.514 150.213L132.143 138.963C132.143 138.963 131.88 130.649 133.461 127.866C133.358 127.24 133.383 126.599 133.535 125.984C133.799 125.308 133.498 123.126 133.498 123.126L134.495 115.125Z" fill="#3F3D56"/>
<path opacity="0.1" d="M124.637 119.655C124.637 119.655 120.856 118.876 119.839 119.403C118.822 119.931 116.833 120.342 116.545 120.639C116.257 120.935 115.495 120.717 114.816 122.484C114.136 124.25 114.066 126.058 113.197 126.885C112.329 127.713 111.884 128.277 111.847 128.878C111.81 129.48 111.958 129.632 111.62 129.817C111.283 130.003 110.797 130.797 110.941 131.098C111.085 131.399 118.765 138.02 118.765 138.02C118.765 138.02 119.143 140.54 119.481 141.178C119.819 141.817 119.106 150.62 118.353 151.222C117.599 151.823 123.414 151.773 123.414 151.773C123.414 151.773 123.677 146.008 123.904 145.695C124.13 145.383 123.751 139.226 123.751 139.226C123.751 139.226 123.714 133.96 124.204 132.568C124.694 131.176 124.616 126.548 124.616 126.548C124.616 126.548 125.048 123.772 125.575 123.126C126.102 122.479 124.637 119.655 124.637 119.655Z" fill="black"/>
<path d="M124.525 119.544C124.525 119.544 120.745 118.766 119.728 119.289C118.711 119.811 116.718 120.231 116.434 120.524C116.15 120.816 115.38 120.598 114.705 122.369C114.029 124.139 113.951 125.939 113.086 126.766C112.222 127.594 111.769 128.158 111.732 128.759C111.694 129.361 111.847 129.513 111.505 129.702C111.163 129.892 110.682 130.678 110.83 130.979C110.978 131.279 118.654 137.901 118.654 137.901C118.654 137.901 119.028 140.421 119.37 141.059C119.712 141.697 118.991 150.501 118.238 151.102C117.484 151.704 123.319 151.65 123.319 151.65C123.319 151.65 123.583 145.885 123.805 145.576C124.027 145.268 123.657 139.103 123.657 139.103C123.657 139.103 123.62 133.841 124.11 132.449C124.6 131.057 124.542 126.429 124.542 126.429C124.542 126.429 124.974 123.653 125.501 123.007C126.028 122.36 124.525 119.544 124.525 119.544Z" fill="#3F3D56"/>
<path opacity="0.1" d="M124.13 116.361C124.419 117.177 124.567 118.036 124.567 118.901C126.414 119.443 128.39 119.352 130.18 118.643C131.97 117.935 133.473 116.649 134.449 114.99C134.265 114.064 134.141 113.127 134.079 112.185C134.079 112.185 122.512 111.58 124.13 116.361Z" fill="black"/>
<path d="M118.41 110.415C118.409 112.622 119.255 114.746 120.773 116.349C122.292 117.951 124.368 118.91 126.572 119.027C128.777 119.144 130.942 118.41 132.622 116.978C134.302 115.545 135.367 113.522 135.6 111.327C135.832 109.131 135.213 106.93 133.87 105.178C132.527 103.426 130.563 102.256 128.382 101.909C126.202 101.562 123.972 102.065 122.152 103.315C120.332 104.564 119.06 106.464 118.6 108.623C118.474 109.212 118.41 109.813 118.41 110.415Z" fill="#EE8E9E"/>
<path d="M112.88 130.361L110.822 130.999C110.874 131.207 110.863 131.425 110.79 131.627C110.716 131.828 110.584 132.002 110.41 132.127C110.231 132.252 110.088 132.423 109.996 132.621C109.904 132.819 109.866 133.038 109.887 133.256C109.887 133.256 109.66 134.079 109.133 134.273C108.606 134.466 108.269 135.702 108.269 135.702L106.539 137.695C106.539 137.695 105.897 138.222 106.012 138.485C106.127 138.749 105.333 138.823 105.333 138.823L105.744 145.518L109.319 146.198L111.538 145.971L113.342 145.296L114.923 144.353L115.635 142.512L118.798 137.695L112.88 130.361Z" fill="#3F3D56"/>
<path d="M105.847 139.337C105.847 139.337 101.26 132.72 97.8342 136.29C94.4082 139.86 99.226 145.658 100.354 145.469C101.483 145.279 106.865 144.979 106.865 144.979L105.847 139.337Z" fill="#EE8E9E"/>
<path d="M116.654 136.476L96.3902 126.133C96.0783 125.974 95.6963 126.098 95.5371 126.41L87.6354 141.891C87.4762 142.203 87.6 142.585 87.9119 142.744L108.176 153.087C108.488 153.246 108.87 153.122 109.029 152.81L116.931 137.329C117.09 137.017 116.966 136.635 116.654 136.476Z" fill="#3F3D56"/>
<path d="M114.769 137.396L96.7868 128.218L89.8698 141.77L107.852 150.948L114.769 137.396Z" fill="#2160AF"/>
<path d="M92.6374 134.965C92.8194 134.965 92.9669 134.817 92.9669 134.635C92.9669 134.453 92.8194 134.306 92.6374 134.306C92.4555 134.306 92.308 134.453 92.308 134.635C92.308 134.817 92.4555 134.965 92.6374 134.965Z" fill="#E6E8EC"/>
<path d="M112.102 145.156C112.405 145.156 112.65 144.911 112.65 144.608C112.65 144.306 112.405 144.061 112.102 144.061C111.8 144.061 111.555 144.306 111.555 144.608C111.555 144.911 111.8 145.156 112.102 145.156Z" fill="#E6E8EC"/>
<path d="M102.878 140.729C102.837 145.696 113.107 146.75 113.107 146.75L115.73 147.161L116.908 147.347L117.398 142.496C117.398 142.496 116.858 142.414 116.187 142.257C115.191 142.027 113.902 141.627 113.634 141.063C113.202 140.128 102.907 135.763 102.878 140.729Z" fill="#EE8E9E"/>
<path opacity="0.1" d="M118.6 108.623C118.836 108.64 119.059 108.739 119.23 108.903C119.518 109.212 119.535 109.759 119.913 109.949C120.055 110.009 120.211 110.026 120.362 109.998C121.363 109.858 121.939 108.73 122.903 108.417C123.463 108.273 124.056 108.324 124.583 108.561C124.797 108.631 124.99 108.754 125.143 108.919C125.464 109.331 125.238 109.949 125.386 110.451C125.592 111.151 126.428 111.427 127.148 111.518C127.869 111.608 128.684 111.662 129.166 112.205C129.326 112.409 129.44 112.644 129.502 112.896C129.563 113.147 129.571 113.409 129.524 113.663C129.481 113.84 129.481 114.025 129.524 114.202C129.722 114.767 130.698 114.68 130.953 114.235C131.143 113.91 131.085 113.642 131.526 113.552C131.84 113.527 132.156 113.582 132.444 113.712C133.21 113.975 134.018 114.1 134.828 114.079C135.343 112.98 135.621 111.784 135.642 110.57C135.662 109.357 135.427 108.152 134.949 107.036C134.472 105.92 133.765 104.917 132.873 104.093C131.981 103.27 130.925 102.644 129.774 102.257C128.624 101.87 127.404 101.73 126.196 101.848C124.988 101.965 123.818 102.337 122.763 102.938C121.708 103.539 120.793 104.356 120.076 105.336C119.359 106.315 118.857 107.436 118.604 108.623H118.6Z" fill="black"/>
<path d="M129.52 113.977C129.477 113.799 129.477 113.614 129.52 113.437C129.567 113.183 129.56 112.922 129.498 112.672C129.436 112.421 129.322 112.187 129.162 111.984C128.68 111.436 127.869 111.387 127.144 111.292C126.42 111.197 125.588 110.925 125.382 110.225C125.234 109.723 125.46 109.109 125.139 108.698C124.988 108.529 124.795 108.405 124.579 108.339C124.052 108.101 123.459 108.049 122.899 108.191C121.935 108.504 121.359 109.632 120.358 109.772C120.207 109.802 120.05 109.785 119.909 109.723C119.531 109.534 119.498 108.986 119.226 108.677C118.769 108.195 117.9 108.508 117.344 108.15C117.007 107.869 116.789 107.47 116.735 107.034C116.486 106.227 116.429 105.372 116.57 104.539C116.895 103.143 118.147 102.183 118.942 100.985C119.687 99.8732 120.107 98.465 121.223 97.7279C122.339 96.9908 123.776 97.1555 125.04 97.5302C125.621 97.7376 126.219 97.8947 126.827 97.9997C127.844 98.1232 128.866 97.8473 129.887 97.8144C131.334 97.7676 132.756 98.202 133.93 99.0497C134.195 99.2224 134.42 99.4499 134.589 99.7168C134.759 100.095 134.859 100.501 134.886 100.915C135.006 101.692 135.276 102.439 135.68 103.114C135.993 103.645 136.393 104.123 136.677 104.67C136.995 105.207 137.092 105.846 136.949 106.453C136.85 106.762 136.66 107.042 136.586 107.359C136.422 108.092 136.903 108.796 137.233 109.472C137.553 110.09 137.705 110.782 137.673 111.477C137.656 111.824 137.567 112.163 137.411 112.473C137.256 112.784 137.038 113.059 136.772 113.281C136.212 113.669 135.546 113.872 134.865 113.861C134.04 113.886 133.217 113.762 132.436 113.495C132.147 113.366 131.832 113.311 131.517 113.334C131.077 113.425 131.134 113.693 130.945 114.018C130.694 114.454 129.722 114.541 129.52 113.977Z" fill="#3F3D56"/>
<path opacity="0.1" d="M124.88 162.546L129.734 158.749L137.369 151.226L134.849 151.111C134.553 151.378 134.364 151.744 134.318 152.14C134.28 153.058 132.259 152.202 131.2 152.729C130.142 153.256 124.995 159.853 124.093 159.807C123.191 159.762 122.475 159.35 122.096 159.989L122.071 160.03C121.921 160.203 121.719 160.323 121.495 160.371L124.88 162.546Z" fill="black"/>
<path d="M115.1 162.282L117.537 170.069L117.92 171.304L119.082 170.987L121.643 170.283L133.041 167.153C134.477 167.091 135.882 166.717 137.159 166.058C139.314 164.851 141.779 164.313 144.241 164.514C145.748 164.654 147.424 164.003 148.816 161.434C148.816 161.434 151.974 152.107 144.002 149.435C136.03 146.762 135.647 150.855 135.647 150.855L135.536 150.921C135.227 151.119 134.363 151.745 134.33 152.494C134.293 153.412 132.271 152.56 131.213 153.083C130.154 153.606 125.007 160.207 124.105 160.162C123.204 160.116 122.487 159.704 122.108 160.347L122.083 160.388C121.803 160.771 120.968 160.862 120.412 160.874C120.239 160.883 120.066 160.883 119.893 160.874L119.819 160.894L119.242 161.067L115.1 162.282Z" fill="#65617D"/>
<path opacity="0.1" d="M115.73 147.166L116.908 147.351L117.398 142.5C117.398 142.5 116.858 142.418 116.187 142.261C116.364 142.941 115.96 145.556 115.73 147.166Z" fill="black"/>
<path opacity="0.1" d="M146.49 124.493C146.49 124.493 149.986 123.476 149.121 133.408C148.521 139.47 145.944 145.167 141.787 149.62C141.787 149.62 134.338 152.89 130.99 152.362C127.643 151.835 125.201 151.724 125.201 151.724C124.146 151.192 122.992 150.885 121.812 150.822C119.934 150.748 115.985 149.587 115.907 149.204C115.829 148.821 116.887 143.299 116.434 142.887C116.434 142.887 121.701 143.102 122.228 143.48C122.755 143.859 123.508 143.592 124.072 143.48C124.637 143.369 126.366 141.87 129.788 143.188C129.788 143.188 130.953 143.299 131.406 142.999C131.775 142.827 132.196 142.8 132.584 142.925C132.877 142.827 133.154 142.689 133.407 142.513C133.519 142.364 134.425 142.513 134.425 142.513C134.478 142.537 134.537 142.549 134.596 142.549C134.655 142.548 134.713 142.535 134.767 142.51C134.82 142.485 134.868 142.449 134.906 142.404C134.944 142.359 134.973 142.306 134.989 142.249C135.108 141.942 135.287 141.662 135.516 141.426C135.516 141.426 136.529 135.71 138.448 133.565C138.601 133.431 138.719 133.261 138.79 133.071C138.862 132.88 138.886 132.675 138.859 132.474C138.703 131.864 141.977 123.287 146.49 124.493Z" fill="black"/>
<path d="M146.395 123.727C146.395 123.727 149.895 122.714 149.03 132.642C148.432 138.705 145.854 144.402 141.697 148.854C141.697 148.854 134.248 152.128 130.9 151.601C127.552 151.073 125.106 150.95 125.106 150.95C124.053 150.417 122.9 150.11 121.721 150.048C119.84 149.97 115.891 148.813 115.816 148.43C115.742 148.047 116.792 142.525 116.344 142.109C116.344 142.109 121.61 142.327 122.137 142.706C122.664 143.085 123.414 142.813 123.978 142.706C124.542 142.599 126.271 141.096 129.697 142.41C129.697 142.41 130.863 142.525 131.312 142.224C131.681 142.054 132.101 142.026 132.489 142.146C132.781 142.047 133.058 141.908 133.313 141.734C133.424 141.582 134.326 141.734 134.326 141.734C134.38 141.758 134.438 141.771 134.497 141.77C134.556 141.77 134.615 141.756 134.668 141.731C134.722 141.706 134.769 141.67 134.807 141.625C134.846 141.58 134.874 141.528 134.89 141.471C135.009 141.164 135.188 140.884 135.417 140.647C135.417 140.647 136.434 134.932 138.353 132.786C138.506 132.652 138.624 132.483 138.696 132.292C138.768 132.102 138.791 131.897 138.765 131.695C138.612 131.102 141.882 122.537 146.395 123.727Z" fill="#3F3D56"/>
<path opacity="0.1" d="M119.23 161.046L124.196 167.058L124.229 167.025C124.266 166.91 124.756 165.634 124.641 165.555C124.525 165.477 123.665 163.599 121.935 162.809C121.056 162.38 120.317 161.708 119.806 160.874L119.23 161.046Z" fill="black"/>
<path opacity="0.1" d="M119.296 171.452L119.839 171.761C119.839 171.761 121.1 170.752 122.355 169.735C123.611 168.718 124.826 167.722 124.826 167.676C124.826 167.631 125.353 166.285 125.238 166.21C125.123 166.136 124.921 165.65 124.443 165.045C121.075 164.102 123.208 166.441 123.504 166.548C123.504 166.548 119.407 165.605 119.181 170.073C119.161 170.536 119.2 170.999 119.296 171.452Z" fill="black"/>
<path d="M123.451 173.343L124.167 173.754L131.427 173.94C132.241 174.435 133.102 174.848 133.996 175.175C134.115 175.21 134.236 175.237 134.359 175.253C135.033 175.308 135.709 175.321 136.385 175.29C136.941 175.29 137.369 175.253 137.369 175.253C137.369 175.253 137.027 166.099 136.768 165.136C136.644 164.675 136.035 164.774 135.434 165.004C134.983 165.189 134.548 165.409 134.132 165.663C134.132 165.663 131.052 165.964 130.562 166.227C130.072 166.491 128.68 166.075 127.816 166.227C126.951 166.379 125.407 165.21 125.407 165.21C121.194 163.818 123.566 166.412 123.867 166.528C123.867 166.528 119.749 165.585 119.539 170.053C119.329 174.52 123.451 173.343 123.451 173.343Z" fill="#3F3D56"/>
<path d="M133.947 169.809C134.025 171.703 135.504 174.055 136.385 175.298C136.941 175.298 137.369 175.261 137.369 175.261C137.369 175.261 137.027 166.107 136.768 165.144C136.644 164.683 136.035 164.781 135.434 165.012C134.705 166.379 133.881 168.277 133.947 169.809Z" fill="#565387"/>
<path opacity="0.1" d="M133.947 169.809C134.025 171.703 135.504 174.055 136.385 175.298C136.941 175.298 137.369 175.261 137.369 175.261C137.369 175.261 137.027 166.107 136.768 165.144C136.644 164.683 136.035 164.781 135.434 165.012C134.705 166.379 133.881 168.277 133.947 169.809Z" fill="black"/>
<path opacity="0.05" d="M132.703 170.06C133.206 171.889 133.197 173.939 133.996 175.183C134.115 175.218 134.236 175.244 134.359 175.261C135.033 175.316 135.709 175.329 136.385 175.298C136.941 175.298 137.369 175.261 137.369 175.261C137.369 175.261 137.027 166.107 136.768 165.144C136.644 164.683 136.035 164.781 135.433 165.012C134.983 165.196 134.548 165.417 134.132 165.671C134.132 165.671 132.065 167.717 132.703 170.06Z" fill="black"/>
<path opacity="0.1" d="M107.659 151.502C107.659 151.502 111.266 152.671 114.322 156.83L107.659 151.502Z" fill="black"/>
<g opacity="0.1">
<path d="M136.962 106.361C136.962 106.39 136.962 106.415 136.941 106.443C136.906 106.551 136.864 106.655 136.813 106.756C136.853 106.621 136.903 106.489 136.962 106.361Z" fill="black"/>
<path d="M116.562 104.537C116.623 104.274 116.717 104.019 116.842 103.779C116.842 103.841 116.801 103.907 116.785 103.973C116.647 104.807 116.705 105.661 116.953 106.468C117.008 106.903 117.224 107.301 117.559 107.584C118.119 107.942 118.988 107.63 119.445 108.111C119.733 108.42 119.749 108.968 120.128 109.157C120.269 109.219 120.426 109.236 120.577 109.207C121.578 109.067 122.154 107.938 123.118 107.625C123.678 107.481 124.271 107.533 124.798 107.774C125.014 107.84 125.207 107.964 125.358 108.132C125.679 108.544 125.452 109.157 125.601 109.66C125.807 110.36 126.643 110.636 127.363 110.726C128.084 110.817 128.899 110.87 129.381 111.418C129.54 111.621 129.655 111.855 129.717 112.106C129.779 112.357 129.786 112.618 129.739 112.871C129.696 113.049 129.696 113.234 129.739 113.411C129.937 113.975 130.913 113.889 131.168 113.444C131.357 113.119 131.3 112.851 131.74 112.76C132.055 112.737 132.37 112.793 132.659 112.921C133.44 113.188 134.263 113.312 135.088 113.287C135.769 113.298 136.435 113.095 136.995 112.707C137.239 112.515 137.439 112.272 137.579 111.994C137.452 112.499 137.163 112.947 136.756 113.271C136.197 113.659 135.53 113.862 134.849 113.851C134.024 113.877 133.201 113.752 132.42 113.485C132.132 113.357 131.816 113.301 131.502 113.324C131.061 113.415 131.119 113.683 130.933 114.008C130.674 114.453 129.698 114.539 129.5 113.975C129.459 113.798 129.459 113.613 129.5 113.436C129.547 113.182 129.54 112.921 129.478 112.67C129.416 112.42 129.302 112.185 129.142 111.982C128.66 111.434 127.849 111.385 127.124 111.29C126.4 111.196 125.568 110.924 125.362 110.224C125.214 109.721 125.44 109.108 125.119 108.696C124.97 108.528 124.777 108.404 124.563 108.338C124.035 108.099 123.441 108.047 122.879 108.19C121.919 108.503 121.339 109.631 120.338 109.771C120.187 109.8 120.03 109.783 119.889 109.721C119.511 109.532 119.478 108.984 119.206 108.675C118.749 108.194 117.884 108.507 117.324 108.148C116.987 107.867 116.769 107.468 116.715 107.032C116.47 106.224 116.418 105.369 116.562 104.537Z" fill="black"/>
</g>
<path opacity="0.1" d="M137.546 134.647C136.854 135.578 136.068 136.438 135.458 137.419C134.796 138.385 134.475 139.544 134.544 140.713C135.174 140.066 135.467 139.169 135.862 138.357C136.537 136.982 137.542 135.817 138.394 134.557C138.555 134.314 139.593 132.91 139.07 132.852C138.633 132.79 137.781 134.33 137.546 134.647Z" fill="black"/>
<path d="M141.252 222.756C141.75 224.353 142.253 225.955 142.874 227.507C143.995 230.206 145.404 232.776 147.079 235.171C148.158 236.747 149.318 238.268 150.554 239.725C152.102 241.549 153.848 243.386 154.375 245.716C154.692 247.063 154.585 248.467 154.717 249.834C154.849 251.201 155.298 252.667 156.414 253.491C157.208 254.079 158.226 254.257 159.201 254.409C159.901 254.52 160.774 254.557 161.137 253.952C161.264 253.705 161.33 253.431 161.33 253.153L161.499 251.139C161.532 250.703 161.689 250.147 162.125 250.126C162.562 250.106 162.78 250.686 163.15 250.95C163.645 251.296 164.386 250.95 164.658 250.427C164.883 249.861 164.898 249.232 164.699 248.656C164.399 247.51 163.86 246.441 163.117 245.518C162.373 244.595 161.443 243.84 160.387 243.303C159.654 243.008 158.951 242.642 158.287 242.212C157.613 241.626 157.055 240.919 156.64 240.128C152.819 233.836 148.977 227.512 146.28 220.664C145.748 219.44 145.39 218.148 145.213 216.826C145.082 215.479 145.292 214.125 145.378 212.774C145.538 210.348 145.313 207.911 144.711 205.556C144.58 204.937 144.347 204.344 144.023 203.801C142.912 202.117 140.317 201.866 138.67 203.027C138.064 203.494 137.561 204.081 137.194 204.753C136.827 205.424 136.603 206.164 136.537 206.927C136.418 208.294 137.204 209.71 137.604 210.983C138.814 214.911 140.03 218.835 141.252 222.756Z" fill="#A1616A"/>
<path opacity="0.05" d="M141.252 222.756C141.75 224.353 142.253 225.955 142.874 227.507C143.995 230.206 145.404 232.776 147.079 235.171C148.158 236.747 149.318 238.268 150.554 239.725C152.102 241.549 153.848 243.386 154.375 245.716C154.692 247.063 154.585 248.467 154.717 249.834C154.849 251.201 155.298 252.667 156.414 253.491C157.208 254.079 158.226 254.257 159.201 254.409C159.901 254.52 160.774 254.557 161.137 253.952C161.264 253.705 161.33 253.431 161.33 253.153L161.499 251.139C161.532 250.703 161.689 250.147 162.125 250.126C162.562 250.106 162.78 250.686 163.15 250.95C163.645 251.296 164.386 250.95 164.658 250.427C164.883 249.861 164.898 249.232 164.699 248.656C164.399 247.51 163.86 246.441 163.117 245.518C162.373 244.595 161.443 243.84 160.387 243.303C159.654 243.008 158.951 242.642 158.287 242.212C157.613 241.626 157.055 240.919 156.64 240.128C152.819 233.836 148.977 227.512 146.28 220.664C145.748 219.44 145.39 218.148 145.213 216.826C145.082 215.479 145.292 214.125 145.378 212.774C145.538 210.348 145.313 207.911 144.711 205.556C144.58 204.937 144.347 204.344 144.023 203.801C142.912 202.117 140.317 201.866 138.67 203.027C138.064 203.494 137.561 204.081 137.194 204.753C136.827 205.424 136.603 206.164 136.537 206.927C136.418 208.294 137.204 209.71 137.604 210.983C138.814 214.911 140.03 218.835 141.252 222.756Z" fill="black"/>
<path d="M117.245 290.032C117.99 290.291 118.783 290.386 119.568 290.312C119.625 289.669 120.49 289.525 121.133 289.558C121.443 289.548 121.751 289.619 122.026 289.764C122.187 289.867 122.31 290.015 122.467 290.122C122.746 290.275 123.059 290.356 123.377 290.357L126.72 290.637C128.211 290.765 129.763 290.88 131.159 290.349C131.437 290.261 131.685 290.095 131.872 289.871C132.251 289.327 131.872 288.549 131.349 288.154C130.826 287.759 130.151 287.582 129.623 287.178C128.462 286.293 128.302 284.637 127.688 283.311C127.252 282.475 126.714 281.697 126.086 280.993C125.631 280.389 125.101 279.845 124.509 279.375C123.167 278.407 121.627 278.428 120.05 278.288C118.938 278.189 117.892 278.123 117.093 279.111C116.105 280.347 116.5 282.817 116.562 284.258C116.639 286.198 116.868 288.128 117.245 290.032Z" fill="#514E7F"/>
<path opacity="0.05" d="M117.245 290.032C117.99 290.291 118.783 290.386 119.568 290.312C119.625 289.669 120.49 289.525 121.133 289.558C121.443 289.548 121.751 289.619 122.026 289.764C122.187 289.867 122.31 290.015 122.467 290.122C122.746 290.275 123.059 290.356 123.377 290.357L126.72 290.637C128.211 290.765 129.763 290.88 131.159 290.349C131.437 290.261 131.685 290.095 131.872 289.871C132.251 289.327 131.872 288.549 131.349 288.154C130.826 287.759 130.151 287.582 129.623 287.178C128.462 286.293 128.302 284.637 127.688 283.311C127.252 282.475 126.714 281.697 126.086 280.993C125.631 280.389 125.101 279.845 124.509 279.375C123.167 278.407 121.627 278.428 120.05 278.288C118.938 278.189 117.892 278.123 117.093 279.111C116.105 280.347 116.5 282.817 116.562 284.258C116.639 286.198 116.868 288.128 117.245 290.032Z" fill="black"/>
<path d="M118.596 224.991C117.575 225.321 117.13 226.593 117.32 227.651C117.509 228.71 118.143 229.624 118.666 230.563C120.157 233.227 120.799 236.274 122.051 239.054C122.986 241.112 124.25 243.048 125.172 245.131C126.095 247.215 126.667 249.566 126.107 251.778C125.835 252.852 125.308 253.836 124.958 254.895C124.612 256.042 124.385 257.222 124.283 258.415C123.829 262.471 123.748 266.559 124.04 270.629C124.042 271.125 124.146 271.615 124.344 272.07C124.554 272.482 124.917 272.893 124.756 273.305C124.686 273.474 124.534 273.598 124.46 273.762C124.246 274.224 124.674 274.714 125.065 275.043C124.995 275.167 124.901 275.275 124.789 275.362C124.676 275.449 124.548 275.513 124.41 275.549C124.691 275.728 124.907 275.992 125.025 276.303C125.144 276.614 125.159 276.955 125.069 277.275C124.723 277.328 124.703 277.86 124.921 278.14C125.139 278.42 125.485 278.592 125.642 278.91C125.734 279.168 125.724 279.452 125.613 279.703C125.503 279.954 125.301 280.153 125.049 280.26C124.534 280.458 123.973 280.501 123.434 280.384C122.521 280.257 121.62 280.058 120.737 279.791C120.276 279.7 119.863 279.446 119.574 279.076C119.285 278.705 119.14 278.242 119.164 277.773C118.96 276.097 118.898 274.407 118.979 272.721C119.123 264.551 118.979 256.373 118.625 248.207C118.481 244.913 117.492 241.722 116.22 238.691C115.517 237.142 114.735 235.631 113.877 234.162C112.041 230.802 110.418 227.079 110.838 223.27C110.883 222.858 111.032 222.368 111.439 222.302C111.599 222.285 111.76 222.312 111.905 222.381C112.751 222.776 113.569 223.227 114.355 223.731C115.646 224.488 117.101 224.921 118.596 224.991Z" fill="#464353"/>
<path opacity="0.05" d="M118.596 224.991C117.575 225.321 117.13 226.593 117.32 227.651C117.509 228.71 118.143 229.624 118.666 230.563C120.157 233.227 120.799 236.274 122.051 239.054C122.986 241.112 124.25 243.048 125.172 245.131C126.095 247.215 126.667 249.566 126.107 251.778C125.835 252.852 125.308 253.836 124.958 254.895C124.612 256.042 124.385 257.222 124.283 258.415C123.829 262.471 123.748 266.559 124.04 270.629C124.042 271.125 124.146 271.615 124.344 272.07C124.554 272.482 124.917 272.893 124.756 273.305C124.686 273.474 124.534 273.598 124.46 273.762C124.246 274.224 124.674 274.714 125.065 275.043C124.995 275.167 124.901 275.275 124.789 275.362C124.676 275.449 124.548 275.513 124.41 275.549C124.691 275.728 124.907 275.992 125.025 276.303C125.144 276.614 125.159 276.955 125.069 277.275C124.723 277.328 124.703 277.86 124.921 278.14C125.139 278.42 125.485 278.592 125.642 278.91C125.734 279.168 125.724 279.452 125.613 279.703C125.503 279.954 125.301 280.153 125.049 280.26C124.534 280.458 123.973 280.501 123.434 280.384C122.521 280.257 121.62 280.058 120.737 279.791C120.276 279.7 119.863 279.446 119.574 279.076C119.285 278.705 119.14 278.242 119.164 277.773C118.96 276.097 118.898 274.407 118.979 272.721C119.123 264.551 118.979 256.373 118.625 248.207C118.481 244.913 117.492 241.722 116.22 238.691C115.517 237.142 114.735 235.631 113.877 234.162C112.041 230.802 110.418 227.079 110.838 223.27C110.883 222.858 111.032 222.368 111.439 222.302C111.599 222.285 111.76 222.312 111.905 222.381C112.751 222.776 113.569 223.227 114.355 223.731C115.646 224.488 117.101 224.921 118.596 224.991Z" fill="black"/>
<path d="M104.789 215.06C104.257 214.718 103.643 214.524 103.01 214.5C102.277 214.537 101.651 215.018 101.079 215.48C100.401 216 99.7571 216.564 99.1519 217.168C97.8987 218.504 97.0255 220.15 96.623 221.937C96.2204 223.724 96.3031 225.586 96.8625 227.33C97.4678 229.146 98.5755 230.748 99.6708 232.317L101.894 235.513C105.287 240.384 108.68 245.255 112.234 250.011C112.235 250.128 112.273 250.242 112.342 250.336C112.412 250.43 112.51 250.499 112.621 250.534C112.749 250.567 112.909 250.563 112.988 250.67C113.024 250.737 113.04 250.813 113.033 250.888C113.025 251.24 112.958 251.588 112.835 251.918C112.778 252.026 112.763 252.153 112.794 252.272C112.909 252.54 113.395 252.387 113.552 252.638C113.655 252.803 113.527 253.017 113.391 253.157C113.255 253.297 113.087 253.454 113.111 253.647C113.136 253.841 113.474 254.059 113.461 254.298C113.461 254.438 113.338 254.545 113.251 254.656C113.13 254.833 113.075 255.047 113.095 255.261C113.116 255.475 113.21 255.674 113.362 255.826C113.597 258.148 112.333 260.355 112.082 262.669C111.67 266.326 113.338 269.896 113.539 273.565C113.527 273.978 113.606 274.388 113.77 274.767C114.112 275.401 115.005 275.784 114.96 276.505C114.895 276.801 114.812 277.093 114.709 277.378C114.639 277.79 114.837 278.202 114.845 278.613C114.853 279.025 114.487 279.532 114.099 279.367C114.39 280.339 114.65 281.319 114.878 282.307L122.66 282.949C122.744 282.25 122.721 281.542 122.59 280.849C122.43 280.096 122.092 279.396 121.915 278.65C121.8 278.283 121.767 277.896 121.82 277.515C121.873 277.134 122.009 276.769 122.22 276.447C122.017 276.45 121.82 276.38 121.663 276.252C121.506 276.123 121.4 275.943 121.363 275.743C121.298 275.342 121.305 274.932 121.384 274.533C121.59 272.503 120.737 270.501 120.762 268.463C120.787 266.857 121.351 265.313 121.635 263.736C122.244 260.359 121.61 256.698 123.113 253.614C124.023 251.757 125.283 249.698 124.262 247.899C123.76 247.009 122.87 246.4 122.29 245.56C121.816 244.766 121.461 243.907 121.236 243.011C120.037 239.305 118.098 235.863 116.397 232.338C115.925 231.454 115.575 230.511 115.355 229.534C115.235 228.676 115.191 227.809 115.224 226.943C115.224 225.389 115.129 223.837 114.94 222.294C114.901 221.619 114.708 220.961 114.375 220.371C114.039 219.926 113.62 219.549 113.14 219.264C110.587 217.514 107.548 216.513 104.789 215.06Z" fill="#464353"/>
<path d="M114.116 292.885C114.863 293.141 115.656 293.235 116.442 293.161C116.5 292.519 117.361 292.375 118.003 292.408C118.314 292.397 118.622 292.468 118.897 292.614C119.057 292.717 119.181 292.869 119.341 292.972C119.62 293.127 119.933 293.207 120.251 293.207L123.591 293.487C125.086 293.614 126.634 293.734 128.034 293.198C128.312 293.112 128.558 292.946 128.742 292.721C129.121 292.177 128.742 291.403 128.219 291.008C127.696 290.612 127.021 290.431 126.498 290.028C125.333 289.142 125.176 287.491 124.558 286.165C124.126 285.327 123.589 284.546 122.961 283.843C122.504 283.24 121.973 282.697 121.38 282.229C120.041 281.257 118.497 281.277 116.924 281.137C115.808 281.039 114.762 280.977 113.968 281.961C112.979 283.196 113.375 285.667 113.432 287.112C113.51 289.051 113.738 290.982 114.116 292.885Z" fill="#514E7F"/>
<path d="M148.61 201.582C152.868 201.582 156.319 198.131 156.319 193.873C156.319 189.616 152.868 186.165 148.61 186.165C144.353 186.165 140.902 189.616 140.902 193.873C140.902 198.131 144.353 201.582 148.61 201.582Z" fill="#A1616A"/>
<path d="M141.338 196.163C140.235 197.114 138.649 197.184 137.2 197.332C134.1 197.651 131.084 198.524 128.293 199.91C127.907 200.076 127.557 200.317 127.264 200.618C127.013 200.945 126.835 201.321 126.741 201.722C126.476 202.589 126.376 203.498 126.448 204.402C126.549 205.279 126.802 206.132 127.194 206.922C128.264 209.137 129.914 211.02 131.97 212.37C132.333 212.64 132.744 212.837 133.181 212.951C134.194 213.161 135.174 212.576 136.175 212.313C137.085 212.075 138.044 212.105 138.938 212.399C139.761 212.679 140.663 213.19 141.478 212.848C142 212.556 142.406 212.094 142.627 211.538C143.415 210.05 144.117 208.519 144.731 206.951C144.952 206.339 145.206 205.74 145.493 205.156C146.387 203.455 147.931 202.142 148.701 200.375C148.779 200.24 148.826 200.09 148.839 199.935C148.852 199.779 148.83 199.623 148.775 199.478C148.632 199.281 148.435 199.13 148.207 199.045C147.068 198.393 146.031 197.579 145.127 196.628C144.62 196.142 143.69 194.829 142.961 194.713C142.141 194.573 141.894 195.685 141.338 196.163Z" fill="#A1616A"/>
<path d="M141.52 211.827C140.626 212.239 139.572 212.062 138.604 211.86C136.109 211.337 133.585 210.81 131.275 209.731C130.553 209.455 129.928 208.974 129.475 208.347C129.194 207.811 129.023 207.225 128.973 206.622L128.561 203.739C128.413 202.739 128.668 201.812 128.693 200.799C128.709 200.687 128.702 200.573 128.673 200.463C128.644 200.354 128.593 200.251 128.524 200.161C128.383 200.043 128.201 199.985 128.018 200.001C126.86 200.021 126.16 201.236 125.349 202.059C124.88 202.535 124.32 202.91 123.702 203.163C122.961 203.468 122.055 203.682 121.746 204.423C121.623 204.732 121.639 205.082 121.507 205.391C120.988 206.626 118.777 206.214 118.213 207.45C118.053 207.796 118.065 208.228 117.801 208.5C117.538 208.771 117.044 208.767 116.636 208.833C115.026 209.097 114.248 210.954 112.872 211.831C111.715 212.572 110.225 212.556 108.977 213.132C108.285 213.453 107.672 213.956 106.939 214.166C106.206 214.376 105.378 214.265 104.591 214.285C104.508 214.277 104.423 214.287 104.343 214.313C104.263 214.339 104.189 214.381 104.126 214.437C104.077 214.512 104.045 214.596 104.032 214.684C104.018 214.772 104.024 214.862 104.048 214.948C104.429 217.383 105.438 219.676 106.976 221.603C108.513 223.529 110.525 225.022 112.815 225.934C113.08 226.019 113.333 226.141 113.564 226.297C114.264 226.82 114.388 227.944 115.182 228.314C115.469 228.415 115.778 228.435 116.076 228.371C116.373 228.307 116.647 228.162 116.867 227.952C117.305 227.53 117.718 227.082 118.102 226.61C118.828 225.852 119.78 225.35 120.816 225.181C121.771 225.028 122.837 225.14 123.612 224.551C123.928 224.26 124.223 223.946 124.493 223.612C125.066 223.077 125.747 222.67 126.49 222.418C128.52 221.616 130.665 221.145 132.844 221.022C134.874 220.911 136.961 221.096 138.88 220.437C139.378 220.283 139.838 220.023 140.227 219.675C140.639 219.229 140.946 218.696 141.124 218.115C141.817 216.092 141.953 213.92 141.52 211.827Z" fill="#2160AF"/>
<path d="M131.583 200.466C132.152 200.413 132.724 200.466 133.296 200.466C133.968 200.466 134.631 200.301 135.302 200.297C136.365 200.315 137.394 200.671 138.24 201.315C139.086 201.959 139.704 202.856 140.004 203.876C140.061 204.038 140.071 204.214 140.033 204.382C140.011 204.465 139.96 204.537 139.889 204.586C139.817 204.634 139.731 204.655 139.646 204.646C139.423 204.037 139.132 203.455 138.777 202.912C138.139 202.041 137.229 201.406 136.191 201.108C135.156 200.815 134.066 200.776 133.012 200.993C132.572 201.076 132.143 201.191 131.715 201.31L129.656 201.878C129.277 201.981 128.894 202.084 128.528 202.22C128.244 202.327 127.758 202.718 127.478 202.735C127.099 202.735 127.404 202.406 127.573 202.183C127.909 201.725 128.379 201.382 128.919 201.203C129.775 200.853 130.669 200.605 131.583 200.466Z" fill="#2160AF"/>
<path d="M136.78 223.621C137.278 225.218 137.776 226.82 138.402 228.373C139.521 231.072 140.931 233.642 142.607 236.036C143.686 237.612 144.846 239.133 146.082 240.59C147.626 242.414 149.351 244.251 149.903 246.577C150.22 247.928 150.113 249.332 150.245 250.695C150.377 252.058 150.826 253.528 151.937 254.352C152.736 254.936 153.753 255.113 154.729 255.27C155.425 255.381 156.298 255.418 156.665 254.813C156.789 254.565 156.855 254.291 156.858 254.014L157.023 252C157.06 251.564 157.216 251.008 157.649 250.987C158.081 250.967 158.308 251.547 158.678 251.811C159.172 252.157 159.914 251.811 160.185 251.288C160.409 250.721 160.424 250.094 160.227 249.517C159.925 248.372 159.385 247.303 158.642 246.38C157.9 245.458 156.97 244.703 155.915 244.164C155.181 243.868 154.476 243.502 153.811 243.073C153.136 242.487 152.577 241.778 152.164 240.985C148.338 234.697 144.497 228.372 141.804 221.521C141.272 220.298 140.912 219.008 140.733 217.687C140.605 216.34 140.811 214.986 140.902 213.635C141.061 211.209 140.836 208.772 140.235 206.417C140.103 205.797 139.87 205.204 139.543 204.662C138.435 202.974 135.837 202.727 134.19 203.888C133.583 204.355 133.079 204.942 132.711 205.613C132.343 206.285 132.119 207.025 132.053 207.788C131.933 209.155 132.724 210.571 133.119 211.844C134.335 215.775 135.556 219.7 136.78 223.621Z" fill="#A1616A"/>
<path d="M159.823 188.422C159.885 187.779 159.308 187.186 158.654 186.774C157.964 186.421 157.302 186.016 156.673 185.564C156.088 185.057 155.767 184.399 155.182 183.892C154.518 183.386 153.763 183.01 152.959 182.784C151.248 182.184 149.451 181.863 147.639 181.833C145.806 181.833 143.933 182.245 142.553 183.18C142.213 183.394 141.919 183.674 141.688 184.003C141.471 184.399 141.331 184.832 141.277 185.28C140.948 186.661 140.503 188.013 139.947 189.319C139.374 190.773 138.765 192.28 137.418 193.404C135.977 194.602 133.774 195.294 132.823 196.744C132.718 196.872 132.644 197.024 132.607 197.186C132.571 197.348 132.573 197.517 132.613 197.678C132.749 198.045 133.185 198.296 133.589 198.527C135.928 199.869 137.945 201.611 138.983 203.69C140.021 205.77 139.992 208.22 138.514 210.135C137.97 210.843 137.221 211.683 137.752 212.395C138.575 213.478 141.33 212.856 141.973 214.001C142.174 214.368 142.055 214.784 142.055 215.183C142.055 216.385 143.212 217.452 144.616 218.008C146.02 218.564 147.647 218.695 149.228 218.765C149.648 217.822 149.689 216.753 149.343 215.78C149.238 215.57 149.197 215.334 149.224 215.101C149.342 214.842 149.525 214.617 149.755 214.45C151.443 212.852 151.085 210.505 150.072 208.607C149.059 206.709 147.478 204.975 146.889 202.978C146.597 201.986 146.597 200.87 147.383 200.046C147.835 199.65 148.321 199.296 148.837 198.988C149.758 198.363 150.467 197.472 150.871 196.435C151.345 195.121 151.283 193.552 152.658 192.667C153.98 191.843 155.837 192.082 157.299 191.518C158.423 191.073 159.733 189.365 159.823 188.422Z" fill="#464353"/>
<path d="M239.667 252.943C233.387 250.344 231.542 248.467 231.542 244.707C231.542 241.825 232.811 238.498 238.37 238.498C241.443 238.452 244.461 239.312 247.05 240.968L248.858 236.187C246.762 234.952 243.805 233.803 239.473 233.659V226.659H235.821V233.947C229.179 235.03 225.333 239.576 225.333 245.568C225.333 251.847 229.039 255.17 236.418 258.057C241.763 260.235 244.559 262.689 244.559 266.659C244.559 270.777 241.096 273.733 235.969 273.733C231.929 273.733 227.35 272.362 224.752 270.629L223.018 275.463C225.547 277.271 229.879 278.568 234.062 278.642V285.93H240.276V278.424C247.688 277.188 251.678 271.835 251.678 266.153C251.678 259.729 247.103 255.973 239.667 252.943Z" fill="url(#paint1_linear_736_19975)"/>
<path d="M234.079 284.284V276.995C229.895 276.921 225.563 275.624 223.035 273.816L224.769 268.982C227.367 270.716 231.946 272.087 235.985 272.087C241.112 272.087 244.559 269.13 244.559 265.013C244.559 261.043 241.746 258.589 236.401 256.423C229.039 253.54 225.316 250.213 225.316 243.934C225.316 237.942 229.162 233.396 235.804 232.313V225.025H239.457V232.025C243.789 232.169 246.745 233.322 248.841 234.553L247.033 239.313C244.445 237.657 241.426 236.798 238.353 236.843C232.794 236.843 231.526 240.166 231.526 243.052C231.526 246.804 233.371 248.681 239.65 251.288C247.087 254.319 251.662 258.074 251.662 264.498C251.662 270.201 247.692 275.542 240.26 276.769V284.284H234.079Z" fill="#2160AF"/>
</g>
<defs>
<linearGradient id="paint0_linear_736_19975" x1="125.926" y1="175.03" x2="125.926" y2="96.4219" gradientUnits="userSpaceOnUse">
<stop stop-color="#808080" stop-opacity="0.25"/>
<stop offset="0.54" stop-color="#808080" stop-opacity="0.12"/>
<stop offset="1" stop-color="#808080" stop-opacity="0.1"/>
</linearGradient>
<linearGradient id="paint1_linear_736_19975" x1="223.035" y1="256.299" x2="251.678" y2="256.299" gradientUnits="userSpaceOnUse">
<stop stop-color="#808080" stop-opacity="0.25"/>
<stop offset="0.54" stop-color="#808080" stop-opacity="0.12"/>
<stop offset="1" stop-color="#808080" stop-opacity="0.1"/>
</linearGradient>
<clipPath id="clip0_736_19975">
<rect width="485" height="298.605" fill="white"/>
</clipPath>
</defs>
</svg>
